<?xml version="1.0" standalone="no"?>
<!DOCTYPE svg PUBLIC "-//W3C//DTD SVG 20010904//EN"
 "http://www.w3.org/TR/2001/REC-SVG-20010904/DTD/svg10.dtd">
<svg version="1.0" xmlns="http://www.w3.org/2000/svg"
 width="750.000000pt" height="228.000000pt" viewBox="0 0 750.000000 228.000000"
 preserveAspectRatio="xMidYMid meet">

<g transform="translate(0.000000,228.000000) scale(0.100000,-0.100000)"
fill="#000000" stroke="none">
<path d="M0 1140 l0 -1140 3750 0 3750 0 0 1140 0 1140 -3750 0 -3750 0 0
-1140z m2808 295 c3 -112 -8 -139 -60 -143 -28 -2 -40 2 -52 20 -22 31 -4 48
25 22 20 -18 21 -18 35 1 10 13 14 47 14 108 0 79 2 88 18 85 14 -3 17 -17 20
-93z m272 45 l0 -50 40 0 40 0 0 50 c0 43 3 50 20 50 19 0 20 -7 20 -120 0
-113 -1 -120 -20 -120 -18 0 -20 7 -20 55 l0 55 -40 0 -40 0 0 -55 c0 -48 -2
-55 -20 -55 -19 0 -20 7 -20 120 0 113 1 120 20 120 17 0 20 -7 20 -50z m300
-65 c18 -64 30 -118 27 -121 -13 -13 -35 6 -42 36 -6 28 -10 31 -38 28 -25 -2
-32 -9 -39 -35 -6 -23 -14 -33 -28 -33 -11 0 -20 3 -20 6 0 9 61 218 67 227 2
4 12 7 22 7 15 0 25 -23 51 -115z m198 99 c28 -20 30 -77 3 -100 -17 -15 -17
-20 -6 -48 27 -66 28 -76 7 -76 -15 0 -25 13 -38 50 -13 35 -23 50 -36 50 -15
0 -18 -8 -18 -50 0 -43 -3 -50 -20 -50 -19 0 -20 7 -20 120 l0 120 53 0 c31 0
61 -6 75 -16z m196 -5 c31 -25 33 -57 6 -92 l-20 -26 20 -50 20 -51 -21 0
c-15 0 -26 13 -41 50 -28 67 -53 68 -53 3 0 -41 -3 -48 -20 -48 -19 0 -20 7
-22 109 -1 61 1 114 3 118 11 17 101 8 128 -13z m104 -102 c3 -112 2 -117 -18
-117 -19 0 -20 6 -20 121 0 109 2 120 18 117 15 -3 17 -18 20 -121z m162 103
c40 -40 16 -69 -25 -30 -27 25 -57 17 -53 -14 2 -13 18 -28 46 -41 24 -11 47
-27 52 -35 29 -45 -7 -100 -65 -100 -37 0 -75 28 -75 55 0 21 16 19 40 -5 24
-24 43 -25 60 -5 19 23 5 44 -43 64 -45 19 -57 35 -57 74 0 53 79 78 120 37z
m211 -55 c16 -71 20 -71 34 5 11 61 16 70 35 70 14 0 21 -12 29 -50 6 -28 11
-58 11 -65 0 -8 4 -15 9 -15 4 0 14 27 20 61 11 54 31 82 48 66 3 -3 -2 -41
-12 -84 -30 -142 -34 -153 -54 -153 -16 0 -21 13 -32 70 -7 39 -15 70 -19 70
-4 0 -13 -32 -20 -70 -12 -62 -16 -71 -34 -68 -17 3 -24 19 -43 98 -28 118
-29 143 -6 138 13 -2 22 -23 34 -73z m364 55 c0 -11 -13 -16 -47 -18 -46 -3
-48 -5 -48 -33 0 -27 3 -29 35 -29 24 0 35 -5 35 -15 0 -10 -11 -15 -35 -15
-33 0 -35 -2 -35 -35 l0 -35 50 0 c43 0 50 -3 50 -20 0 -18 -7 -20 -70 -20
l-70 0 0 120 0 121 68 -3 c52 -2 67 -6 67 -18z m181 -5 c27 -27 26 -59 -1 -81
-11 -8 -10 -12 6 -22 13 -8 19 -23 19 -47 0 -46 -29 -65 -97 -65 l-53 0 0 120
0 120 50 0 c41 0 56 -5 76 -25z m-1906 -195 c0 -13 -7 -20 -20 -20 -13 0 -20
7 -20 20 0 13 7 20 20 20 13 0 20 -7 20 -20z m-73 -154 c18 -21 23 -39 23 -82
0 -86 -39 -124 -126 -124 l-34 0 0 121 0 121 57 -4 c46 -4 61 -10 80 -32z
m213 19 c0 -11 -12 -15 -50 -15 l-50 0 0 -35 c0 -33 2 -35 35 -35 24 0 35 -5
35 -15 0 -10 -11 -15 -35 -15 -33 0 -35 -2 -35 -35 l0 -35 50 0 c43 0 50 -3
50 -20 0 -18 -7 -20 -70 -20 l-70 0 0 120 0 120 70 0 c56 0 70 -3 70 -15z m94
-60 l20 -70 22 70 c17 55 26 71 43 73 25 4 25 7 -19 -142 -37 -124 -53 -124
-90 0 -45 149 -44 146 -19 142 18 -2 26 -17 43 -73z m284 58 c2 -9 -11 -13
-47 -13 l-51 0 0 -35 c0 -33 2 -35 35 -35 24 0 35 -5 35 -15 0 -10 -11 -15
-35 -15 -33 0 -35 -2 -35 -35 l0 -35 50 0 c43 0 50 -3 50 -20 0 -18 -7 -20
-70 -20 l-70 0 0 120 0 121 67 -3 c42 -2 68 -8 71 -15z m92 -83 l0 -100 45 0
c38 0 45 -3 45 -20 0 -18 -7 -20 -65 -20 l-65 0 0 120 c0 113 1 120 20 120 19
0 20 -7 20 -100z m255 94 c44 -17 62 -131 31 -192 -28 -55 -98 -55 -139 -1
-35 47 -18 175 25 192 19 8 64 8 83 1z m215 -4 c31 -17 41 -44 29 -80 -12 -32
-41 -50 -85 -50 -22 0 -24 -4 -24 -50 0 -43 -3 -50 -20 -50 -19 0 -20 7 -20
120 l0 120 51 0 c28 0 59 -5 69 -10z m154 -69 c22 -81 23 -81 51 22 14 49 20
57 41 57 l24 0 0 -121 c0 -109 -2 -120 -17 -117 -14 2 -19 16 -22 63 l-3 60
-17 -60 c-25 -86 -44 -84 -69 7 l-20 73 -1 -72 c-1 -66 -3 -73 -21 -73 -19 0
-20 7 -20 121 l0 120 28 -3 c25 -3 29 -9 46 -77z m316 64 c0 -11 -12 -15 -50
-15 l-50 0 0 -35 c0 -33 2 -35 35 -35 24 0 35 -5 35 -15 0 -10 -11 -15 -35
-15 -33 0 -35 -2 -35 -35 l0 -35 50 0 c43 0 50 -3 50 -20 0 -18 -7 -20 -70
-20 l-70 0 0 120 0 120 70 0 c56 0 70 -3 70 -15z m133 -52 l37 -68 0 68 c0 60
2 67 20 67 19 0 20 -7 20 -120 0 -149 -10 -154 -74 -38 l-45 83 -3 -80 c-3
-67 -6 -80 -20 -83 -16 -3 -18 8 -18 117 0 119 0 121 23 121 18 0 31 -15 60
-67z m277 52 c0 -10 -10 -15 -30 -15 l-30 0 0 -105 c0 -98 -1 -105 -20 -105
-19 0 -20 7 -20 105 l0 105 -35 0 c-33 0 -43 8 -28 23 3 4 42 7 85 7 63 0 78
-3 78 -15z m-2415 -484 c3 -5 -5 -11 -17 -13 -25 -4 -37 -28 -14 -28 9 0 16
-4 16 -10 0 -5 -7 -10 -15 -10 -8 0 -15 -9 -15 -20 0 -11 -4 -20 -10 -20 -11
0 -14 93 -3 103 10 10 51 8 58 -2z m315 -21 c0 -13 -13 -13 -27 1 -8 8 -13 8
-17 0 -4 -6 4 -16 19 -23 18 -8 25 -18 23 -32 -3 -23 -44 -34 -61 -17 -15 15
0 26 16 13 8 -7 17 -9 20 -5 12 11 8 21 -12 28 -27 8 -36 37 -15 52 18 13 54
1 54 -17z m754 20 c21 -8 26 -16 26 -43 0 -39 -15 -57 -47 -57 -21 0 -23 5
-23 48 0 42 5 62 16 62 1 0 14 -4 28 -10z m840 -23 c7 -11 7 -25 0 -44 -7 -22
-17 -29 -42 -31 l-32 -3 0 50 c0 30 5 51 13 54 17 6 49 -7 61 -26z m-1784 -27
c0 -27 -4 -50 -10 -50 -5 0 -10 23 -10 50 0 28 5 50 10 50 6 0 10 -22 10 -50z
m50 0 c0 -27 -4 -50 -10 -50 -5 0 -10 23 -10 50 0 28 5 50 10 50 6 0 10 -22
10 -50z m191 38 c4 -73 3 -88 -7 -88 -12 0 -22 52 -16 83 4 19 22 23 23 5z
m209 -8 c0 -14 5 -18 17 -13 13 5 15 2 10 -11 -4 -10 -2 -26 3 -37 14 -24 -5
-26 -19 -1 -10 16 -10 16 -11 0 0 -10 -4 -18 -10 -18 -5 0 -10 23 -10 50 0 28
5 50 10 50 6 0 10 -9 10 -20z m129 -11 l4 -24 6 24 c9 33 27 37 36 9 l8 -23 4
23 c5 23 23 31 23 10 0 -24 -21 -88 -29 -88 -4 0 -12 12 -18 28 l-11 27 -1
-27 c-2 -47 -26 -32 -37 22 -8 36 -8 50 0 47 6 -2 13 -14 15 -28z m201 16 c0
-8 9 -15 21 -15 17 0 20 -5 17 -32 -2 -28 -8 -34 -30 -36 -27 -3 -28 -2 -28
47 0 28 5 51 10 51 6 0 10 -7 10 -15z m390 -35 c0 -29 -5 -50 -11 -50 -10 0
-11 74 -2 93 9 17 13 4 13 -43z m470 -1 c0 -49 -1 -50 -27 -47 -22 2 -29 9
-31 31 -3 22 1 30 17 34 12 3 21 12 21 19 0 8 5 14 10 14 6 0 10 -23 10 -51z
m430 1 c0 -27 -4 -50 -10 -50 -5 0 -10 23 -10 50 0 28 5 50 10 50 6 0 10 -22
10 -50z m500 35 c0 -8 6 -15 13 -16 10 0 10 -2 0 -6 -7 -2 -13 -12 -13 -22 0
-9 6 -23 13 -30 10 -10 8 -12 -8 -9 -21 3 -35 47 -27 81 5 21 22 23 22 2z
m-2650 -46 c0 -17 4 -28 10 -24 6 3 10 17 10 31 0 13 5 24 10 24 6 0 10 -16
10 -35 0 -32 -2 -35 -30 -35 -28 0 -30 3 -30 35 0 19 5 35 10 35 6 0 10 -14
10 -31z m408 -6 c3 -31 1 -33 -27 -33 -36 0 -42 24 -13 46 16 13 16 14 -2 7
-14 -4 -17 -3 -12 6 4 7 18 11 29 9 17 -2 23 -11 25 -35z m72 26 c0 -6 -7 -9
-15 -5 -11 4 -15 -1 -15 -19 0 -18 4 -23 15 -19 8 4 15 1 15 -6 0 -6 -10 -10
-22 -8 -39 5 -37 68 2 68 11 0 20 -5 20 -11z m338 -11 c2 -13 -3 -18 -18 -18
-12 0 -19 -4 -15 -10 3 -5 13 -6 22 -3 11 4 14 3 9 -5 -13 -21 -45 -13 -52 12
-3 14 -3 30 1 36 10 17 49 8 53 -12z m310 0 c2 -13 -3 -18 -18 -18 -12 0 -19
-4 -15 -10 3 -5 12 -7 20 -3 8 3 15 0 15 -6 0 -17 -38 -13 -48 5 -5 9 -7 25
-4 36 6 24 45 21 50 -4z m72 12 c0 -5 -8 -7 -17 -4 -12 4 -10 0 6 -14 13 -11
21 -24 17 -31 -9 -14 -46 -14 -46 0 0 6 7 9 15 5 22 -8 18 7 -5 22 -12 7 -18
17 -15 22 8 13 45 13 45 0z m135 -7 c-2 -10 -4 -21 -4 -25 -1 -5 -9 -8 -18 -9
-14 0 -13 -2 5 -9 12 -5 22 -17 22 -25 0 -12 -8 -15 -32 -13 -32 3 -33 4 -30
43 5 50 8 55 37 55 17 0 22 -5 20 -17z m85 -18 c0 -19 -4 -35 -10 -35 -5 0
-10 14 -10 31 0 17 -4 28 -10 24 -5 -3 -10 -17 -10 -31 0 -13 -4 -24 -10 -24
-5 0 -10 16 -10 35 0 32 2 35 30 35 28 0 30 -3 30 -35z m130 0 c0 -31 -3 -35
-25 -35 -30 0 -34 26 -7 46 16 13 16 14 0 8 -10 -3 -18 -1 -18 5 0 6 11 11 25
11 22 0 25 -4 25 -35z m80 0 c0 -19 -4 -35 -10 -35 -5 0 -10 14 -10 31 0 16
-4 28 -9 25 -4 -3 -6 -17 -3 -31 2 -15 0 -25 -7 -25 -6 0 -11 16 -11 35 0 31
3 35 25 35 22 0 25 -4 25 -35z m310 31 c0 -2 3 -11 6 -20 4 -12 0 -16 -16 -16
-11 0 -19 -4 -15 -10 3 -5 13 -6 23 -3 13 5 14 3 6 -6 -27 -29 -65 6 -50 45 5
12 46 21 46 10z m51 -18 l0 -23 9 23 c15 36 29 26 17 -13 -10 -33 -37 -49 -37
-22 0 6 -3 22 -6 35 -4 13 -2 22 5 22 6 0 11 -10 12 -22z m109 2 c0 -11 -7
-20 -15 -20 -8 0 -15 -4 -15 -10 0 -5 7 -7 15 -4 8 4 15 1 15 -6 0 -6 -10 -10
-22 -8 -39 5 -37 68 2 68 13 0 20 -7 20 -20z m125 -15 c0 -23 -5 -31 -21 -33
-24 -3 -38 20 -28 50 4 13 13 18 27 16 17 -2 22 -10 22 -33z m93 2 c2 -19 -2
-29 -15 -34 -10 -4 -23 -14 -30 -22 -10 -13 -12 -7 -13 37 0 52 1 53 28 50 21
-2 28 -9 30 -31z m122 -2 c0 -19 -4 -35 -10 -35 -5 0 -10 14 -10 31 0 17 -4
28 -10 24 -5 -3 -10 -17 -10 -31 0 -13 -4 -24 -10 -24 -5 0 -10 14 -10 31 0
17 -4 28 -10 24 -5 -3 -10 -17 -10 -31 0 -13 -4 -24 -10 -24 -5 0 -10 16 -10
35 l0 35 50 0 50 0 0 -35z m78 13 c2 -13 -3 -18 -18 -18 -12 0 -19 -4 -15 -10
3 -5 12 -7 20 -3 8 3 15 0 15 -6 0 -17 -47 -13 -54 5 -4 9 -4 25 0 36 7 24 47
21 52 -4z m82 -13 c0 -19 -4 -35 -10 -35 -5 0 -10 14 -10 31 0 16 -4 28 -9 24
-6 -3 -8 -14 -6 -25 2 -11 0 -22 -6 -25 -5 -4 -9 10 -9 29 0 32 3 36 25 36 22
0 25 -4 25 -35z m-2415 5 c3 -5 -3 -10 -14 -10 -12 0 -21 5 -21 10 0 6 6 10
14 10 8 0 18 -4 21 -10z"/>
<path d="M3317 1428 c-10 -34 -9 -38 8 -38 16 0 20 27 6 48 -6 10 -10 8 -14
-10z"/>
<path d="M3490 1460 c0 -29 2 -31 33 -28 27 2 32 7 32 28 0 21 -5 26 -32 28
-31 3 -33 1 -33 -28z"/>
<path d="M3688 1460 c4 -28 8 -31 36 -28 26 2 31 7 31 28 0 21 -5 25 -36 28
-35 3 -36 2 -31 -28z"/>
<path d="M4710 1460 c0 -25 4 -30 24 -30 13 0 29 7 36 15 19 23 4 45 -30 45
-27 0 -30 -3 -30 -30z"/>
<path d="M4710 1364 c0 -34 1 -35 32 -32 38 4 51 34 22 55 -34 25 -54 17 -54
-23z"/>
<path d="M2720 1075 c0 -83 0 -85 24 -85 33 0 56 35 56 85 0 48 -15 70 -52 79
l-28 6 0 -85z"/>
<path d="M3687 1142 c-12 -13 -17 -37 -17 -75 0 -46 4 -58 22 -71 28 -20 33
-20 52 0 11 10 16 34 16 74 0 81 -35 115 -73 72z"/>
<path d="M3897 1154 c-4 -4 -7 -20 -7 -36 0 -27 3 -29 33 -26 27 2 33 8 35 31
2 19 -1 27 -12 27 -8 0 -21 2 -28 5 -8 3 -17 2 -21 -1z"/>
<path d="M3480 645 c0 -23 5 -35 14 -35 18 0 26 32 14 54 -15 27 -28 18 -28
-19z"/>
<path d="M4297 673 c-4 -3 -7 -19 -7 -35 0 -23 4 -29 18 -26 21 4 28 41 9 56
-8 7 -17 9 -20 5z"/>
<path d="M3344 636 c-4 -10 -2 -22 4 -28 8 -8 13 -7 18 6 4 10 2 22 -4 28 -8
8 -13 7 -18 -6z"/>
<path d="M4160 624 c0 -14 4 -23 10 -19 6 3 10 15 10 26 0 10 -4 19 -10 19 -5
0 -10 -12 -10 -26z"/>
<path d="M2850 609 c0 -5 5 -7 10 -4 6 3 10 8 10 11 0 2 -4 4 -10 4 -5 0 -10
-5 -10 -11z"/>
<path d="M3780 640 c0 -5 5 -10 11 -10 5 0 7 5 4 10 -3 6 -8 10 -11 10 -2 0
-4 -4 -4 -10z"/>
<path d="M3780 580 c0 -5 5 -10 10 -10 6 0 10 5 10 10 0 6 -4 10 -10 10 -5 0
-10 -4 -10 -10z"/>
<path d="M4673 634 c-3 -8 -1 -20 6 -27 8 -8 11 -4 11 16 0 30 -7 35 -17 11z"/>
<path d="M4760 624 c0 -14 4 -23 10 -19 6 3 10 15 10 26 0 10 -4 19 -10 19 -5
0 -10 -12 -10 -26z"/>
</g>
</svg>
