<?xml version="1.0" standalone="no"?>
<!DOCTYPE svg PUBLIC "-//W3C//DTD SVG 20010904//EN"
 "http://www.w3.org/TR/2001/REC-SVG-20010904/DTD/svg10.dtd">
<svg version="1.0" xmlns="http://www.w3.org/2000/svg"
 width="940.000000pt" height="788.000000pt" viewBox="0 0 940.000000 788.000000"
 preserveAspectRatio="xMidYMid meet">

<g transform="translate(0.000000,788.000000) scale(0.100000,-0.100000)"
fill="#000000" stroke="none">
<path d="M0 3940 l0 -3940 2803 0 2802 0 715 715 715 715 110 0 110 0 -715
-715 -715 -715 110 0 110 0 715 715 c403 403 723 715 732 715 11 0 18 7 18 18
0 9 411 428 945 962 l945 945 0 110 0 110 -945 -945 -945 -945 0 110 0 110
945 945 945 945 0 110 0 110 -945 -945 -945 -945 0 110 0 110 945 945 945 945
0 110 0 110 -945 -945 -945 -945 0 110 0 110 945 945 945 945 0 110 0 110
-945 -945 -945 -945 0 110 0 110 945 945 945 945 0 110 0 110 -945 -945 -945
-945 0 110 0 110 945 945 945 945 0 110 0 110 -945 -945 -945 -945 0 110 0
110 945 945 945 945 0 110 0 110 -945 -945 -945 -945 0 110 0 110 945 945 945
945 0 109 0 110 -942 -940 -943 -939 -3 106 -3 106 946 943 945 944 0 115 0
116 -945 -945 -945 -945 0 110 0 110 945 945 945 945 0 110 0 110 -945 -945
-945 -945 0 110 0 110 945 945 945 945 0 57 0 58 -52 0 -53 0 -892 -892 -893
-893 0 110 0 110 782 782 783 783 -110 0 -110 0 -715 -715 -715 -715 -110 0
-110 0 715 715 715 715 -110 0 -110 0 -715 -715 -715 -715 -110 0 -110 0 715
715 715 715 -110 0 -110 0 -715 -715 -715 -715 -110 0 -110 0 715 715 715 715
-110 0 -110 0 -715 -715 -715 -715 -110 0 -110 0 715 715 715 715 -110 0 -110
0 -715 -715 -715 -715 -42 0 -43 0 0 67 0 68 647 647 648 648 -110 0 -110 0
-530 -530 c-291 -292 -533 -530 -537 -530 -5 0 -8 46 -8 102 l0 103 427 427
428 428 -111 0 -110 0 -317 -311 -317 -311 0 110 0 110 206 201 205 201 -113
0 -113 0 -92 -92 -93 -93 0 93 0 92 -2790 0 -2790 0 0 -3940z m902 2888 l3
-33 108 -3 107 -3 0 -34 0 -35 -110 0 -110 0 0 -35 c0 -32 -2 -35 -30 -35
l-30 0 0 105 0 105 29 0 c26 0 30 -4 33 -32z m520 0 l3 -33 108 -3 107 -3 0
-34 0 -35 -110 0 -110 0 0 -35 c0 -32 -2 -35 -30 -35 l-30 0 0 105 0 105 29 0
c26 0 30 -4 33 -32z m520 0 l3 -33 108 -3 107 -3 0 -34 0 -35 -110 0 -110 0 0
-35 c0 -32 -2 -35 -30 -35 l-30 0 0 105 0 105 29 0 c26 0 30 -4 33 -32z m520
0 l3 -33 108 -3 107 -3 0 -34 0 -35 -110 0 -110 0 0 -35 c0 -32 -2 -35 -30
-35 l-30 0 0 105 0 105 29 0 c26 0 30 -4 33 -32z m520 0 l3 -33 108 -3 107 -3
0 -34 0 -35 -110 0 -110 0 0 -35 c0 -32 -2 -35 -30 -35 l-30 0 0 105 0 105 29
0 c26 0 30 -4 33 -32z m530 0 l3 -33 108 -3 107 -3 0 -34 0 -35 -110 0 -110 0
0 -35 c0 -32 -2 -35 -30 -35 l-30 0 0 105 0 105 29 0 c26 0 30 -4 33 -32z
m-2392 -250 c0 -29 -8 -39 -72 -83 l-71 -50 72 -3 71 -3 0 -34 0 -35 -140 0
-140 0 0 33 c1 28 9 38 73 82 l72 50 -72 3 -73 3 0 34 0 35 140 0 140 0 0 -32z
m520 0 c0 -29 -8 -39 -72 -83 l-71 -50 72 -3 71 -3 0 -34 0 -35 -140 0 -140 0
0 33 c1 28 9 38 73 82 l72 50 -72 3 -73 3 0 34 0 35 140 0 140 0 0 -32z m520
0 c0 -29 -8 -39 -72 -83 l-71 -50 72 -3 71 -3 0 -34 0 -35 -140 0 -140 0 0 33
c1 28 9 38 73 82 l72 50 -72 3 -73 3 0 34 0 35 140 0 140 0 0 -32z m520 0 c0
-29 -8 -38 -65 -78 -36 -25 -65 -48 -65 -52 0 -5 30 -8 66 -8 l65 0 -3 -37 -3
-38 -55 -3 c-30 -2 -92 -1 -137 3 l-83 7 0 31 c1 28 9 38 73 82 l72 50 -72 3
-73 3 0 34 0 35 140 0 140 0 0 -32z m520 0 c0 -29 -8 -38 -65 -78 -36 -25 -65
-48 -65 -52 0 -5 30 -8 66 -8 l65 0 -3 -37 -3 -38 -135 0 -135 0 -3 35 c-3 34
0 38 63 79 36 24 68 47 71 52 3 5 -27 9 -65 9 l-71 0 0 35 0 35 140 0 140 0 0
-32z m530 0 c0 -29 -8 -38 -65 -78 -36 -25 -65 -48 -65 -52 0 -5 30 -8 66 -8
l65 0 -3 -37 -3 -38 -135 0 -135 0 -3 35 c-3 34 0 38 63 79 36 24 68 47 71 52
3 5 -27 9 -65 9 l-71 0 0 35 0 35 140 0 140 0 0 -32z m-2830 -318 c0 -57 1
-60 25 -60 24 0 25 3 25 55 0 54 0 55 30 55 30 0 30 -1 30 -55 0 -52 1 -55 25
-55 24 0 25 3 25 60 l0 60 30 0 30 0 0 -95 0 -95 -140 0 -140 0 0 95 0 95 30
0 30 0 0 -60z m520 0 c0 -57 1 -60 25 -60 24 0 25 3 25 55 0 54 0 55 30 55 30
0 30 -1 30 -55 0 -52 1 -55 25 -55 24 0 25 3 25 60 l0 60 30 0 30 0 0 -95 0
-95 -140 0 -140 0 0 95 0 95 30 0 30 0 0 -60z m520 0 c0 -57 1 -60 25 -60 24
0 25 3 25 55 0 54 0 55 30 55 30 0 30 -1 30 -55 0 -52 1 -55 25 -55 24 0 25 3
25 60 l0 60 30 0 30 0 0 -95 0 -95 -140 0 -140 0 0 95 0 95 30 0 30 0 0 -60z
m520 0 c0 -57 1 -60 25 -60 24 0 25 3 25 55 0 54 0 55 30 55 30 0 30 -1 30
-55 0 -48 2 -55 20 -55 18 0 20 7 20 60 l0 60 35 0 c19 0 35 -4 35 -10 0 -6
47 -10 120 -10 73 0 120 4 120 10 0 6 16 10 35 10 19 0 35 -4 35 -8 0 -4 32
-8 70 -8 39 0 70 4 70 8 0 4 16 8 35 8 19 0 35 -4 35 -10 0 -6 48 -10 125 -10
77 0 125 4 125 10 0 6 16 10 35 10 19 0 35 -4 35 -8 0 -4 32 -8 70 -8 39 0 70
4 70 8 0 4 16 8 35 8 19 0 35 -4 35 -10 0 -7 612 -10 1815 -10 1203 0 1815 -3
1815 -10 0 -7 -733 -10 -2179 -10 l-2180 0 14 -47 c7 -27 54 -188 104 -359 50
-170 91 -317 90 -325 -1 -24 -18 32 -119 386 l-97 340 -182 3 -181 2 0 -32 c0
-18 3 -56 6 -85 l7 -52 28 15 c16 8 29 21 29 29 0 21 35 27 72 12 56 -24 56
-22 88 -221 7 -43 7 -73 2 -78 -14 -14 -3 -46 19 -53 20 -7 26 -30 10 -39 -5
-3 6 -36 24 -73 18 -38 38 -94 44 -126 11 -50 10 -62 -5 -96 -14 -33 -20 -38
-35 -30 -10 5 -20 9 -23 9 -11 0 -6 -35 10 -65 26 -50 94 -397 80 -414 -15
-19 -16 -153 -1 -167 7 -8 17 -9 27 -3 16 9 33 -14 23 -31 -3 -4 3 -6 14 -3
16 4 25 -16 70 -154 28 -87 51 -163 51 -168 -1 -9 -138 -76 -303 -150 l-55
-24 -40 127 c-129 411 -124 400 -135 365 -10 -32 -12 -33 -62 -33 -29 0 -80 3
-114 6 l-61 7 0 93 0 94 30 0 30 0 0 -60 c0 -57 1 -60 25 -60 24 0 25 3 25 55
0 54 0 55 30 55 30 0 30 -1 30 -55 0 -48 2 -55 20 -55 18 0 20 7 20 60 0 33 4
60 10 60 6 0 10 9 10 20 0 18 -7 20 -54 20 -29 0 -81 3 -115 6 l-61 7 0 33 0
34 105 0 105 0 0 55 c0 30 5 55 10 55 6 0 10 9 10 21 0 16 -4 19 -17 14 -10
-4 -36 -9 -59 -12 -51 -7 -117 25 -139 67 -18 35 -19 106 -2 140 29 58 121 87
191 60 24 -9 26 -8 26 20 0 30 -1 30 -54 30 -29 0 -81 3 -115 6 l-61 7 0 59
c0 67 19 122 48 137 12 6 37 11 57 11 49 0 81 -34 90 -94 5 -29 12 -46 21 -46
11 0 14 19 14 85 l0 85 -115 0 -115 0 0 48 0 49 75 28 c41 16 75 31 75 35 0 3
-33 17 -72 31 l-73 26 -3 45 -3 45 62 7 c34 3 86 6 115 6 47 0 54 2 54 20 0
18 -7 20 -54 20 -29 0 -81 3 -115 6 l-61 7 0 93 0 94 30 0 30 0 0 -60z m-1340
-225 l0 -35 -67 -1 -68 -1 65 -22 c62 -21 65 -24 68 -57 l3 -35 -73 -24 -73
-25 73 -3 72 -3 0 -34 0 -35 -140 0 -140 0 0 49 0 49 80 27 c44 15 80 30 80
34 0 4 -35 18 -77 32 l-78 25 -3 47 -3 47 140 0 141 0 0 -35z m520 0 l0 -35
-67 -1 -68 -1 65 -22 c62 -21 65 -24 68 -57 l3 -35 -73 -24 -73 -25 73 -3 72
-3 0 -34 0 -35 -140 0 -140 0 0 49 0 49 80 27 c44 15 80 30 80 34 0 4 -35 18
-77 32 l-78 25 -3 47 -3 47 140 0 141 0 0 -35z m520 0 l0 -35 -67 -1 -68 -1
65 -22 c62 -21 65 -24 68 -57 l3 -35 -73 -24 -73 -25 73 -3 72 -3 0 -34 0 -35
-140 0 -140 0 0 49 0 49 80 27 c44 15 80 30 80 34 0 4 -35 18 -77 32 l-78 25
-3 47 -3 47 140 0 141 0 0 -35z m3060 -199 c27 -14 172 -46 265 -60 49 -7 124
-26 143 -35 9 -5 51 -21 92 -36 41 -15 106 -40 143 -57 37 -16 73 -31 80 -32
12 -3 30 -9 65 -23 9 -4 22 -7 28 -8 6 0 22 -6 35 -12 13 -7 60 -24 103 -38
43 -14 88 -31 100 -37 12 -7 27 -13 34 -14 7 -1 23 -9 35 -17 12 -8 47 -22 77
-32 30 -10 62 -23 70 -29 28 -21 60 -36 75 -36 8 0 15 -4 15 -9 0 -5 16 -12
35 -15 19 -4 35 -12 35 -18 0 -6 3 -8 7 -5 3 4 16 1 27 -7 12 -7 36 -17 53
-20 17 -4 37 -14 43 -21 13 -16 130 -75 149 -75 20 0 154 -72 179 -96 13 -13
40 -28 60 -35 21 -6 44 -17 52 -24 8 -7 26 -16 39 -20 36 -11 88 -45 71 -46
-10 0 -11 -2 -2 -6 6 -2 10 -8 7 -13 -3 -5 4 -11 15 -15 20 -6 20 -13 20 -926
0 -605 -3 -919 -10 -919 -5 0 -70 21 -142 46 -73 25 -203 68 -288 95 -676 218
-1710 576 -1884 653 -30 13 -59 34 -66 46 -10 18 -7 26 27 58 42 40 34 35 -47
-27 -40 -31 -60 -55 -72 -87 l-16 -44 26 -14 c15 -8 50 -21 77 -29 139 -42
1538 -521 1585 -543 30 -14 75 -44 100 -68 46 -44 117 -75 580 -254 l125 -48
0 -577 c0 -540 -1 -577 -18 -594 -11 -11 -20 -14 -25 -8 -4 6 -29 11 -56 12
-28 2 -54 7 -60 13 -6 6 -14 6 -22 -1 -8 -7 -14 -7 -19 1 -3 5 -28 10 -55 10
-27 0 -52 5 -55 10 -4 6 -11 8 -16 4 -5 -3 -49 6 -99 20 -49 14 -104 26 -123
26 -18 0 -37 3 -40 7 -4 3 -19 8 -33 9 -14 2 -42 11 -62 22 -20 10 -68 29
-107 42 -38 12 -74 26 -79 31 -6 5 -20 9 -32 9 -13 0 -26 5 -29 10 -3 6 -15
10 -26 10 -10 0 -19 5 -19 10 0 6 -7 10 -15 10 -19 0 -64 28 -87 55 -19 22
-24 94 -9 123 5 9 25 58 46 107 35 86 116 229 215 381 56 86 78 173 60 230 -7
19 -17 33 -23 31 -6 -2 -87 -106 -180 -233 -486 -659 -695 -933 -755 -989 -35
-33 -68 -70 -73 -83 l-9 -22 -970 0 -970 0 0 -45 0 -45 55 0 55 0 0 -35 0 -35
-140 0 -140 0 0 35 0 35 50 0 50 0 0 45 0 45 -230 0 -230 0 0 -45 0 -45 55 0
55 0 0 -35 0 -35 -140 0 -140 0 0 35 0 35 50 0 50 0 0 45 0 45 -180 2 -181 3
134 110 c74 61 275 227 447 370 172 143 392 325 489 405 141 116 177 151 179
173 4 30 35 56 89 72 43 13 213 153 213 176 0 21 45 59 70 59 25 0 148 97 163
129 6 14 31 35 53 46 51 24 154 112 154 130 0 7 17 21 38 30 57 27 151 105
154 128 2 14 14 24 37 30 40 10 153 95 148 111 -2 6 -24 17 -49 25 l-46 14
-63 -49 c-36 -29 -66 -61 -69 -74 -8 -32 -39 -31 -112 4 -30 14 -60 26 -67 26
-14 0 -120 -75 -138 -98 -17 -21 -3 -36 47 -51 53 -16 77 -61 33 -61 -21 0
-151 -107 -158 -130 -10 -31 -45 -33 -118 -5 -37 14 -74 25 -81 25 -25 0 -154
-109 -158 -133 -2 -16 -15 -26 -51 -38 -59 -19 -235 -151 -248 -185 -9 -25
-77 -63 -112 -64 -10 0 -37 -13 -60 -29 -103 -70 -144 -73 -62 -4 32 27 45 45
45 64 0 33 22 52 90 79 65 24 163 98 169 125 4 24 27 42 67 54 45 13 157 100
174 135 11 22 25 33 48 37 40 8 103 50 158 106 23 24 53 47 66 52 47 18 383
272 383 289 0 12 -25 26 -85 49 -47 18 -90 30 -97 28 -7 -2 -63 -42 -125 -88
-62 -45 -144 -104 -182 -131 -39 -26 -78 -60 -88 -77 -10 -16 -26 -29 -37 -29
-27 0 -150 -93 -173 -130 -12 -21 -26 -30 -44 -30 -26 0 -174 -96 -174 -112 0
-20 -51 -58 -77 -58 -34 0 -176 -103 -181 -131 -5 -30 -42 -49 -94 -49 l-48 0
22 34 c13 19 35 42 50 51 16 9 28 25 28 35 0 25 37 50 75 50 16 1 40 6 51 13
33 19 124 104 124 115 0 16 41 42 65 42 27 0 167 102 176 129 5 12 23 24 46
30 46 13 165 94 175 120 3 10 19 21 35 25 45 11 163 95 163 117 0 14 7 19 26
19 20 0 85 35 123 67 13 10 -37 33 -220 99 -111 41 -206 74 -211 74 -6 0 -44
-21 -84 -46 -50 -31 -74 -52 -74 -65 0 -14 -7 -19 -30 -19 -37 0 -170 -83
-177 -111 -4 -13 -14 -19 -33 -19 -36 0 -175 -87 -189 -117 -7 -16 -19 -23
-38 -23 -16 0 -48 -13 -73 -28 -25 -15 -62 -38 -82 -51 -21 -13 -38 -29 -38
-36 0 -21 -41 -45 -75 -45 -18 0 -51 -13 -80 -33 -27 -17 -60 -39 -74 -48 -14
-8 -27 -26 -29 -38 -4 -25 -44 -45 -73 -36 -36 12 -12 54 39 69 12 4 22 14 22
23 0 23 30 42 66 43 17 0 46 11 65 25 19 14 53 37 75 52 23 16 45 37 50 47 5
12 27 24 51 30 50 13 180 94 188 118 3 9 20 20 38 23 41 9 174 92 188 116 5
11 19 19 30 19 20 0 142 69 237 133 54 36 48 45 -60 87 l-81 30 -128 -77 c-76
-46 -132 -87 -139 -101 -7 -16 -16 -22 -28 -18 -22 7 -167 -77 -188 -109 -10
-15 -26 -25 -40 -25 -48 0 -194 -87 -194 -114 0 -17 -22 -26 -59 -26 -41 0
-132 -54 -179 -105 -40 -44 -55 -51 -86 -39 -12 5 -8 14 21 50 31 37 43 44 73
44 27 0 55 13 111 51 41 28 82 61 92 75 11 14 29 24 43 24 32 0 196 99 202
123 3 10 14 17 30 17 34 0 194 90 200 113 3 10 14 17 29 17 30 0 183 87 183
105 0 11 -66 45 -89 45 -5 0 -45 -20 -89 -45 -50 -28 -82 -53 -85 -66 -4 -15
-11 -19 -24 -15 -23 7 -170 -74 -199 -111 -12 -15 -26 -23 -32 -19 -15 9 -158
-69 -192 -104 -14 -15 -38 -29 -55 -33 -43 -8 -194 -96 -211 -122 -9 -14 -29
-25 -52 -29 -68 -10 -77 -24 -76 -112 0 -43 -1 -73 -4 -66 -2 8 -38 12 -118
12 l-114 0 0 95 0 95 30 0 30 0 0 -61 c0 -52 2 -60 16 -55 9 3 20 6 25 6 5 0
9 25 9 55 0 54 0 55 30 55 30 0 30 -1 30 -55 0 -48 2 -55 20 -55 18 0 20 7 20
54 0 30 5 58 10 61 6 3 10 15 10 26 0 18 -8 19 -115 19 l-115 0 0 70 c0 38 5
80 11 94 16 34 63 53 99 39 20 -7 31 -7 45 3 10 8 31 14 47 14 l28 0 0 -94 c0
-52 4 -97 8 -100 4 -2 129 62 277 144 361 200 395 219 395 229 0 4 -19 14 -42
20 -45 14 -68 28 -68 42 0 10 258 146 322 170 93 34 173 22 408 -61 247 -87
884 -300 897 -300 5 0 8 14 5 30 -5 33 -11 36 -32 18 -12 -11 -12 -10 -1 5 7
9 22 17 33 17 17 0 18 2 4 15 -8 8 -19 15 -25 15 -16 0 -13 16 5 34 14 15 14
16 0 16 -19 0 -21 16 -3 24 6 4 2 4 -10 2 -20 -4 -26 5 -38 51 -2 7 4 18 13
25 14 11 15 10 9 -7 -7 -20 -7 -20 8 -1 11 15 12 22 3 27 -21 13 171 194 464
439 82 68 100 98 113 184 9 55 12 55 -70 -4 -27 -20 -95 -67 -150 -105 -55
-38 -169 -120 -253 -183 -147 -108 -182 -131 -182 -118 0 4 82 68 165 128 5 4
39 31 74 60 35 29 109 89 164 133 l100 80 3 66 c4 78 12 73 -151 113 -55 14
-147 39 -204 55 l-104 30 -43 -19 c-24 -11 -64 -29 -89 -40 -66 -30 -89 -30
-92 0 -8 64 0 386 11 455 2 17 10 81 16 144 11 103 14 115 38 136 70 61 323
158 448 173 68 8 115 2 164 -22z m-4219 -135 c23 -23 29 -39 29 -70 l0 -41 45
0 c45 0 45 0 45 -35 l0 -35 -140 0 -140 0 0 60 c0 67 19 122 47 139 35 20 83
13 114 -18z m520 0 c23 -23 29 -39 29 -70 l0 -41 45 0 c45 0 45 0 45 -35 l0
-35 -140 0 -140 0 0 60 c0 67 19 122 47 139 35 20 83 13 114 -18z m520 0 c23
-23 29 -39 29 -70 l0 -41 45 0 c45 0 45 0 45 -35 l0 -35 -140 0 -140 0 0 60
c0 67 19 122 47 139 35 20 83 13 114 -18z m-1009 -241 c55 -16 88 -60 88 -121
0 -94 -45 -139 -140 -139 -99 0 -146 50 -138 146 8 98 84 143 190 114z m520 0
c55 -16 88 -60 88 -121 0 -94 -45 -139 -140 -139 -99 0 -146 50 -138 146 8 98
84 143 190 114z m520 0 c55 -16 88 -60 88 -121 0 -94 -45 -139 -140 -139 -99
0 -146 50 -138 146 8 98 84 143 190 114z m-952 -380 l0 -90 -140 0 -140 0 0
35 0 35 110 0 110 0 0 55 c0 54 0 55 30 55 l30 0 0 -90z m520 0 l0 -90 -140 0
-140 0 0 35 0 35 110 0 110 0 0 55 c0 54 0 55 30 55 l30 0 0 -90z m520 0 l0
-90 -140 0 -140 0 0 35 0 35 110 0 110 0 0 55 c0 54 0 55 30 55 l30 0 0 -90z
m1207 -92 c-3 -8 -6 -5 -6 6 -1 11 2 17 5 13 3 -3 4 -12 1 -19z m-2467 -108
c0 -57 1 -60 25 -60 24 0 25 3 25 55 0 54 0 55 30 55 30 0 30 -1 30 -55 0 -52
1 -55 25 -55 24 0 25 3 25 60 l0 60 30 0 30 0 0 -95 0 -95 -140 0 -140 0 0 95
0 95 30 0 30 0 0 -60z m520 0 c0 -57 1 -60 25 -60 24 0 25 3 25 55 0 54 0 55
30 55 30 0 30 -1 30 -55 0 -52 1 -55 25 -55 24 0 25 3 25 60 l0 60 30 0 30 0
0 -95 0 -95 -140 0 -140 0 0 95 0 95 30 0 30 0 0 -60z m520 0 c0 -57 1 -60 25
-60 24 0 25 3 25 55 0 54 0 55 30 55 30 0 30 -1 30 -55 0 -52 1 -55 25 -55 24
0 25 3 25 60 l0 60 30 0 30 0 0 -95 0 -95 -140 0 -140 0 0 95 0 95 30 0 30 0
0 -60z m-892 -228 c71 -25 72 -26 72 -61 l0 -36 -133 -48 c-72 -26 -135 -47
-139 -47 -5 0 -8 15 -8 34 0 34 1 35 83 62 45 14 86 29 91 32 5 3 -31 19 -80
36 l-89 31 -3 37 -3 38 68 -26 c37 -15 101 -38 141 -52z m520 0 c71 -25 72
-26 72 -61 l0 -36 -133 -48 c-72 -26 -135 -47 -139 -47 -5 0 -8 15 -8 34 0 34
1 35 83 62 45 14 86 29 91 32 5 3 -31 19 -80 36 l-89 31 -3 37 -3 38 68 -26
c37 -15 101 -38 141 -52z m520 0 c71 -25 72 -26 72 -61 l0 -36 -133 -48 c-72
-26 -135 -47 -139 -47 -5 0 -8 15 -8 34 0 34 1 35 83 62 45 14 86 29 91 32 5
3 -31 19 -80 36 l-89 31 -3 37 -3 38 68 -26 c37 -15 101 -38 141 -52z m465 23
l77 -27 0 -59 c0 -32 -1 -59 -3 -59 -1 0 -49 -16 -106 -35 -56 -19 -107 -35
-112 -35 -5 0 -9 15 -9 34 0 32 3 34 63 56 125 45 122 38 27 73 -85 32 -85 32
-88 70 l-3 37 38 -14 c21 -7 73 -26 116 -41z m-1653 -295 c0 -57 1 -60 25 -60
24 0 25 3 25 55 0 54 0 55 30 55 30 0 30 -1 30 -55 0 -52 1 -55 25 -55 24 0
25 3 25 60 l0 60 30 0 30 0 0 -95 0 -95 -140 0 -140 0 0 95 0 95 30 0 30 0 0
-60z m520 0 c0 -57 1 -60 25 -60 24 0 25 3 25 55 0 54 0 55 30 55 30 0 30 -1
30 -55 0 -52 1 -55 25 -55 24 0 25 3 25 60 l0 60 30 0 30 0 0 -95 0 -95 -140
0 -140 0 0 95 0 95 30 0 30 0 0 -60z m520 0 c0 -57 1 -60 25 -60 24 0 25 3 25
55 0 54 0 55 30 55 30 0 30 -1 30 -55 0 -52 1 -55 25 -55 24 0 25 3 25 60 l0
60 30 0 30 0 0 -95 0 -95 -140 0 -140 0 0 95 0 95 30 0 30 0 0 -60z m520 0 c0
-57 1 -60 25 -60 24 0 25 3 25 55 0 54 0 55 30 55 30 0 30 -1 30 -55 0 -48 2
-55 20 -55 18 0 20 7 20 60 0 33 4 60 10 60 6 0 10 -40 10 -100 l0 -100 -54 0
c-29 0 -81 3 -115 6 l-61 7 0 93 0 94 30 0 30 0 0 -60z m-1402 -200 c43 -26
62 -74 62 -155 l0 -65 -140 0 -140 0 0 65 c0 117 46 175 140 175 28 0 58 -8
78 -20z m520 0 c43 -26 62 -74 62 -155 l0 -65 -140 0 -140 0 0 65 c0 117 46
175 140 175 28 0 58 -8 78 -20z m520 0 c43 -26 62 -74 62 -155 l0 -65 -140 0
-140 0 0 65 c0 117 46 175 140 175 28 0 58 -8 78 -20z m507 14 c28 -11 36 -51
29 -150 l-7 -94 -52 0 c-29 0 -80 3 -114 6 l-61 7 0 64 c0 117 44 172 137 173
28 0 59 -3 68 -6z m2359 -269 c-4 -8 0 -23 7 -33 12 -16 12 -16 -5 0 -16 14
-17 48 -2 48 3 0 3 -7 0 -15z m-3869 -146 c16 -16 21 -36 24 -104 l3 -85 -141
0 -141 0 0 70 c0 38 5 80 11 94 16 34 62 52 95 37 20 -9 31 -8 52 4 32 17 69
11 97 -16z m520 0 c16 -16 21 -36 24 -104 l3 -85 -141 0 -141 0 0 70 c0 38 5
80 11 94 16 34 62 52 95 37 20 -9 31 -8 52 4 32 17 69 11 97 -16z m520 0 c16
-16 21 -36 24 -104 l3 -85 -141 0 -141 0 0 70 c0 38 5 80 11 94 16 34 62 52
95 37 20 -9 31 -8 52 4 32 17 69 11 97 -16z m2005 -41 c0 -7 -34 -35 -76 -62
-42 -27 -80 -60 -85 -73 -5 -15 -17 -23 -31 -23 -34 -1 -178 -97 -178 -119 0
-20 -19 -31 -53 -31 -29 0 -161 -88 -179 -120 -11 -19 -27 -29 -52 -34 -19 -4
-59 -22 -88 -41 -29 -20 -60 -38 -70 -41 -9 -3 -22 -20 -28 -39 -12 -37 -26
-45 -75 -45 -18 0 -38 -7 -46 -16 -16 -19 -63 -44 -84 -44 -18 0 -21 50 -3 68
7 7 28 12 48 12 25 0 43 7 56 21 10 12 45 34 77 50 35 18 57 36 57 46 0 25 30
53 58 53 14 0 48 15 76 34 28 18 64 41 79 50 15 9 32 27 37 40 5 15 20 25 41
30 44 8 175 95 188 124 7 14 19 22 35 22 30 0 176 95 176 115 0 9 9 15 23 15
12 0 29 5 37 10 21 14 60 12 60 -2z m-3240 -258 c0 -57 1 -60 25 -60 24 0 25
3 25 55 0 54 0 55 30 55 30 0 30 -1 30 -55 0 -52 1 -55 25 -55 24 0 25 3 25
60 l0 60 30 0 30 0 0 -95 0 -95 -140 0 -140 0 0 95 0 95 30 0 30 0 0 -60z
m520 0 c0 -57 1 -60 25 -60 24 0 25 3 25 55 0 54 0 55 30 55 30 0 30 -1 30
-55 0 -52 1 -55 25 -55 24 0 25 3 25 60 l0 60 30 0 30 0 0 -95 0 -95 -140 0
-140 0 0 95 0 95 30 0 30 0 0 -60z m520 0 c0 -57 1 -60 25 -60 24 0 25 3 25
55 0 54 0 55 30 55 30 0 30 -1 30 -55 0 -52 1 -55 25 -55 24 0 25 3 25 60 l0
60 30 0 30 0 0 -95 0 -95 -140 0 -140 0 0 95 0 95 30 0 30 0 0 -60z m-942
-196 l122 -38 0 -37 0 -36 -82 -24 -82 -23 82 -24 82 -25 0 -36 0 -36 -128
-39 c-70 -22 -133 -41 -139 -44 -9 -3 -13 7 -13 32 0 20 6 38 13 41 6 2 46 14
87 26 l75 22 -87 25 c-88 25 -88 25 -88 58 0 32 2 34 69 54 37 11 73 20 80 20
22 0 10 18 -16 25 -16 3 -52 13 -80 21 -51 15 -53 17 -53 51 0 29 3 34 18 30
9 -2 72 -22 140 -43z m520 0 l122 -38 0 -37 0 -36 -82 -24 -82 -23 82 -24 82
-25 0 -36 0 -36 -128 -39 c-70 -22 -133 -41 -139 -44 -9 -3 -13 7 -13 32 0 20
6 38 13 41 6 2 46 14 87 26 l75 22 -87 25 c-88 25 -88 25 -88 58 0 32 2 34 69
54 37 11 73 20 80 20 22 0 10 18 -16 25 -16 3 -52 13 -80 21 -51 15 -53 17
-53 51 0 29 3 34 18 30 9 -2 72 -22 140 -43z m520 0 l122 -38 0 -37 0 -36 -82
-24 -82 -23 82 -24 82 -25 0 -36 0 -36 -128 -39 c-70 -22 -133 -41 -139 -44
-9 -3 -13 7 -13 32 0 20 6 38 13 41 6 2 46 14 87 26 l75 22 -87 25 c-88 25
-88 25 -88 58 0 32 2 34 69 54 37 11 73 20 80 20 22 0 10 18 -16 25 -16 3 -52
13 -80 21 -51 15 -53 17 -53 51 0 29 3 34 18 30 9 -2 72 -22 140 -43z m483 14
l109 -31 0 -58 0 -57 -52 -13 -52 -12 74 -22 c59 -17 76 -26 78 -43 2 -13 -4
-25 -17 -31 -11 -6 -22 -19 -25 -29 -6 -17 -19 -22 -150 -58 -28 -8 -58 -17
-69 -20 -16 -5 -18 -1 -15 31 3 36 5 38 70 59 37 12 69 24 72 27 3 2 -28 15
-69 28 -73 24 -75 25 -75 57 0 31 2 33 68 55 37 12 71 24 76 27 5 3 -26 16
-68 29 -75 25 -76 25 -76 59 0 19 3 34 6 34 3 0 54 -14 115 -32z m234 -158 c0
-22 -51 -48 -66 -33 -10 10 -8 17 6 33 21 23 60 23 60 0z m275 -153 c0 -26 -6
-36 -25 -45 -32 -15 -62 -15 -70 -2 -12 19 7 52 38 65 49 21 57 19 57 -18z
m-143 -52 c3 -9 -3 -25 -12 -35 -24 -27 -62 -26 -70 1 -8 23 -8 22 20 37 28
16 55 15 62 -3z m387 -77 c-15 -27 -50 -61 -71 -69 -16 -6 -23 -17 -23 -34 0
-18 -10 -31 -32 -45 -39 -24 -48 -24 -73 -6 -18 13 -18 15 -2 40 10 14 31 33
48 41 22 12 28 21 24 35 -9 27 31 50 88 50 36 0 46 -3 41 -12z m-536 -70 c4
-32 -26 -52 -68 -46 -25 4 -29 0 -34 -25 -3 -16 -6 -49 -6 -73 0 -38 -3 -44
-21 -44 -13 0 -19 5 -15 13 28 69 31 117 7 117 -6 0 -22 -24 -36 -54 -30 -64
-63 -82 -112 -61 -38 16 -53 42 -53 92 0 71 8 83 52 83 38 0 39 0 24 -22 -18
-25 -22 -88 -6 -88 6 0 19 20 29 43 31 72 98 109 133 73 12 -11 18 -10 38 6
33 26 64 20 68 -14z m-1639 -14 c23 -29 28 -94 11 -138 -7 -20 -16 -26 -41
-26 -26 0 -30 3 -24 18 4 9 10 36 12 60 5 37 3 42 -14 42 -15 0 -25 -12 -37
-45 -10 -25 -27 -52 -39 -60 -57 -40 -127 2 -127 77 0 74 8 88 47 88 30 0 34
-3 27 -17 -4 -10 -9 -35 -12 -55 -6 -50 22 -52 38 -4 20 63 46 86 95 86 35 0
48 -5 64 -26z m520 0 c23 -29 28 -94 11 -138 -7 -20 -16 -26 -41 -26 -26 0
-30 3 -24 18 4 9 10 36 12 60 5 37 3 42 -14 42 -15 0 -25 -12 -37 -45 -10 -25
-27 -52 -39 -60 -57 -40 -127 2 -127 77 0 74 8 88 47 88 30 0 34 -3 27 -17 -4
-10 -9 -35 -12 -55 -6 -50 22 -52 38 -4 20 63 46 86 95 86 35 0 48 -5 64 -26z
m520 0 c23 -29 28 -94 11 -138 -7 -20 -16 -26 -41 -26 -26 0 -30 3 -24 18 4 9
10 36 12 60 5 37 3 42 -14 42 -15 0 -25 -12 -37 -45 -10 -25 -27 -52 -39 -60
-57 -40 -127 2 -127 77 0 74 8 88 47 88 30 0 34 -3 27 -17 -4 -10 -9 -35 -12
-55 -6 -50 22 -52 38 -4 20 63 46 86 95 86 35 0 48 -5 64 -26z m819 -116 c17
-22 -4 -55 -43 -68 -30 -10 -36 -16 -31 -33 7 -29 -9 -53 -45 -66 -39 -14 -35
-14 -53 4 -28 28 18 85 67 85 9 0 12 11 9 33 -3 27 1 35 20 44 31 16 63 16 76
1z m492 -23 c0 -3 -5 -11 -10 -18 -6 -7 -19 -24 -31 -39 -20 -27 -87 -54 -100
-40 -4 4 -10 19 -14 33 -10 40 32 69 101 69 30 0 54 -2 54 -5z m-2330 -110 l0
-35 -140 0 -140 0 0 35 0 35 140 0 140 0 0 -35z m520 0 l0 -35 -140 0 -140 0
0 35 0 35 140 0 140 0 0 -35z m520 0 l0 -35 -140 0 -140 0 0 35 0 35 140 0
140 0 0 -35z m470 0 l0 -35 -115 0 -115 0 0 35 0 35 115 0 115 0 0 -35z
m-1510 -103 c0 -36 -3 -40 -50 -62 -33 -16 -50 -30 -50 -42 0 -15 8 -18 50
-18 l50 0 0 -35 0 -35 -140 0 -140 0 0 73 c0 133 68 183 161 116 12 -9 26 -6
65 14 27 14 50 26 52 27 1 0 2 -17 2 -38z m520 0 c0 -36 -3 -40 -50 -62 -33
-16 -50 -30 -50 -42 0 -15 8 -18 50 -18 l50 0 0 -35 0 -35 -140 0 -140 0 0 73
c0 133 68 183 161 116 12 -9 26 -6 65 14 27 14 50 26 52 27 1 0 2 -17 2 -38z
m520 0 c0 -36 -3 -40 -50 -62 -33 -16 -50 -30 -50 -42 0 -15 8 -18 50 -18 l50
0 0 -35 0 -35 -140 0 -140 0 0 73 c0 133 68 183 161 116 12 -9 26 -6 65 14 27
14 50 26 52 27 1 0 2 -17 2 -38z m480 -12 c0 -45 -3 -51 -30 -65 -37 -19 -39
-35 -5 -35 23 0 25 -4 25 -40 l0 -40 -115 0 -115 0 0 73 c0 90 22 133 73 142
34 7 74 -6 88 -27 7 -12 69 18 69 32 0 6 2 10 5 10 3 0 5 -22 5 -50z m478 -26
c4 -27 -19 -46 -59 -47 -46 -3 -62 27 -30 54 32 27 85 22 89 -7z m-1998 -221
c0 -35 -4 -40 -50 -66 -66 -37 -66 -57 0 -57 l50 0 0 -35 0 -35 -140 0 -140 0
0 64 c0 73 14 122 40 136 32 17 88 12 111 -11 l20 -20 52 30 c29 17 53 31 55
31 1 0 2 -17 2 -37z m520 0 c0 -35 -4 -40 -50 -66 -66 -37 -66 -57 0 -57 l50
0 0 -35 0 -35 -140 0 -140 0 0 64 c0 73 14 122 40 136 32 17 88 12 111 -11
l20 -20 52 30 c29 17 53 31 55 31 1 0 2 -17 2 -37z m520 0 c0 -35 -4 -40 -50
-66 -66 -37 -66 -57 0 -57 l50 0 0 -35 0 -35 -140 0 -140 0 0 64 c0 73 14 122
40 136 32 17 88 12 111 -11 l20 -20 52 30 c29 17 53 31 55 31 1 0 2 -17 2 -37z
m384 6 c23 -18 31 -20 52 -10 34 15 34 16 34 -29 0 -33 -4 -42 -25 -52 -35
-16 -32 -38 6 -38 28 0 30 -2 27 -32 l-3 -33 -117 -3 -118 -3 0 64 c0 86 15
126 54 143 43 18 59 17 90 -7z m225 -28 c13 -23 5 -31 -30 -31 -35 0 -48 19
-24 37 26 18 42 16 54 -6z m-1649 -235 c0 -30 -4 -35 -30 -41 -29 -6 -30 -9
-30 -60 0 -51 1 -54 30 -60 26 -6 30 -11 30 -41 0 -19 -4 -34 -8 -34 -4 0 -66
23 -137 50 -71 28 -131 50 -133 50 -2 0 -2 16 0 36 l3 37 125 48 c69 26 131
48 138 48 7 1 12 -12 12 -33z m520 0 c0 -30 -4 -35 -30 -41 -29 -6 -30 -9 -30
-60 0 -51 1 -54 30 -60 26 -6 30 -11 30 -41 0 -19 -4 -34 -8 -34 -4 0 -66 23
-137 50 -71 28 -131 50 -133 50 -2 0 -2 16 0 36 l3 37 125 48 c69 26 131 48
138 48 7 1 12 -12 12 -33z m520 0 c0 -30 -4 -35 -30 -41 -29 -6 -30 -9 -30
-60 0 -51 1 -54 30 -60 26 -6 30 -11 30 -41 0 -19 -4 -34 -8 -34 -4 0 -66 23
-137 50 -71 28 -131 50 -133 50 -2 0 -2 16 0 36 l3 37 125 48 c69 26 131 48
138 48 7 1 12 -12 12 -33z m466 -100 l0 -124 -65 24 c-36 14 -88 35 -114 46
-45 21 -48 24 -45 57 3 33 5 35 108 77 58 23 108 43 111 43 3 1 5 -55 5 -123z
m-1506 -201 l0 -35 -55 0 -55 0 0 -55 0 -55 55 0 c54 0 55 0 55 -30 l0 -30
-140 0 -140 0 0 30 c0 29 1 30 50 30 l50 0 0 55 0 55 -50 0 -50 0 0 35 0 35
140 0 140 0 0 -35z m520 0 l0 -35 -55 0 -55 0 0 -55 0 -55 55 0 c54 0 55 0 55
-30 l0 -30 -140 0 -140 0 0 30 c0 29 1 30 50 30 l50 0 0 55 0 55 -50 0 -50 0
0 35 0 35 140 0 140 0 0 -35z m520 0 l0 -35 -55 0 -55 0 0 -55 0 -55 55 0 c54
0 55 0 55 -30 l0 -30 -140 0 -140 0 0 30 c0 29 1 30 50 30 l50 0 0 55 0 55
-50 0 -50 0 0 35 0 35 140 0 140 0 0 -35z m474 4 c8 -40 1 -49 -35 -49 -28 0
-29 -2 -29 -45 l0 -45 55 0 55 0 0 -35 0 -35 -140 0 -140 0 0 30 c0 26 4 30
28 30 61 0 72 9 72 55 0 47 -9 55 -66 55 -32 0 -34 2 -34 35 l0 35 114 0 114
0 6 -31z m3131 -349 c-93 -93 -173 -170 -177 -170 -5 0 -8 46 -8 102 l0 102
67 68 67 68 111 0 110 0 -170 -170z m215 -225 l-395 -395 -3 107 -3 107 288
288 288 288 110 0 110 0 -395 -395z m220 -220 l-615 -615 -3 107 -3 107 508
508 508 508 110 0 110 0 -615 -615z m-5092 433 c34 -34 -6 -90 -48 -68 -35 19
-20 80 20 80 9 0 21 -5 28 -12z m520 0 c34 -34 -6 -90 -48 -68 -35 19 -20 80
20 80 9 0 21 -5 28 -12z m520 0 c34 -34 -6 -90 -48 -68 -35 19 -20 80 20 80 9
0 21 -5 28 -12z m520 0 c34 -34 -6 -90 -48 -68 -35 19 -20 80 20 80 9 0 21 -5
28 -12z m520 0 c34 -34 -6 -90 -48 -68 -35 19 -20 80 20 80 9 0 21 -5 28 -12z
m530 0 c34 -34 -6 -90 -48 -68 -35 19 -20 80 20 80 9 0 21 -5 28 -12z m-2617
-129 c15 -15 19 -30 17 -62 -3 -41 -4 -42 -43 -45 -32 -3 -38 -1 -27 9 6 7 12
21 12 31 0 16 -11 18 -110 18 l-110 0 0 35 0 35 120 0 c108 0 122 -2 141 -21z
m520 0 c15 -15 19 -30 17 -62 -3 -41 -4 -42 -43 -45 -32 -3 -38 -1 -27 9 6 7
12 21 12 31 0 16 -11 18 -110 18 l-110 0 0 35 0 35 120 0 c108 0 122 -2 141
-21z m520 0 c15 -15 19 -30 17 -62 -3 -41 -4 -42 -43 -45 -32 -3 -38 -1 -27 9
6 7 12 21 12 31 0 16 -11 18 -110 18 l-110 0 0 35 0 35 120 0 c108 0 122 -2
141 -21z m520 0 c15 -15 19 -30 17 -62 -3 -41 -4 -42 -43 -45 -32 -3 -38 -1
-27 9 6 7 12 21 12 31 0 16 -11 18 -110 18 l-110 0 0 35 0 35 120 0 c108 0
122 -2 141 -21z m520 0 c15 -15 19 -30 17 -62 -3 -41 -4 -42 -43 -45 -32 -3
-38 -1 -27 9 6 7 12 21 12 31 0 16 -11 18 -110 18 l-110 0 0 35 0 35 120 0
c108 0 122 -2 141 -21z m530 0 c15 -15 19 -30 17 -62 -3 -41 -4 -42 -43 -45
-32 -3 -38 -1 -27 9 6 7 12 21 12 31 0 16 -11 18 -110 18 l-110 0 0 35 0 35
120 0 c108 0 122 -2 141 -21z"/>
<path d="M2561 5996 c2 -1 19 -8 37 -14 26 -9 32 -8 32 4 0 10 -11 14 -37 14
-20 0 -34 -2 -32 -4z"/>
<path d="M2590 5850 c-12 -8 -9 -10 13 -10 15 0 27 5 27 10 0 13 -20 13 -40 0z"/>
<path d="M2476 5644 c-9 -8 -16 -24 -16 -35 0 -15 7 -19 35 -19 28 0 35 4 35
19 0 17 -24 51 -35 51 -2 0 -11 -7 -19 -16z"/>
<path d="M2636 5369 c-3 -35 -2 -67 3 -72 7 -7 91 35 91 46 0 2 -20 22 -44 46
l-43 42 -7 -62z"/>
<path d="M2482 5374 c-49 -34 -10 -104 59 -104 66 0 99 70 51 108 -22 17 -83
15 -110 -4z"/>
<path d="M6205 4774 c-20 -15 -29 -31 -27 -45 2 -11 -1 -26 -7 -33 -6 -7 -15
-41 -19 -75 -8 -60 -8 -63 15 -78 13 -9 35 -37 48 -62 12 -25 35 -56 49 -68
14 -12 28 -35 32 -50 3 -15 12 -46 19 -68 8 -22 27 -85 44 -140 49 -159 62
-197 87 -253 13 -29 24 -55 24 -58 0 -4 14 -22 30 -41 17 -18 30 -38 30 -43 0
-15 28 -12 37 4 4 8 17 14 28 13 24 -2 25 -12 -21 151 -33 117 -40 132 -59
132 -12 0 -22 6 -23 13 -1 6 -3 23 -5 37 -2 14 -8 34 -14 45 -6 11 -12 22 -12
25 -11 41 -15 50 -25 50 -6 0 -38 82 -71 182 -33 100 -76 228 -95 284 l-35
102 -30 -24z m29 -151 c14 -40 22 -73 17 -73 -7 0 -51 123 -51 144 0 17 8 1
34 -71z m264 -653 c6 -16 9 -30 7 -30 -5 0 -35 56 -35 65 0 15 19 -8 28 -35z"/>
<path d="M4775 4070 c3 -5 13 -10 21 -10 8 0 12 5 9 10 -3 6 -13 10 -21 10 -8
0 -12 -4 -9 -10z"/>
<path d="M6574 4028 c4 -13 11 -44 17 -70 14 -64 23 -61 14 5 -9 69 -14 87
-27 87 -6 0 -8 -9 -4 -22z"/>
<path d="M2466 3723 c-3 -4 -6 -19 -6 -35 0 -21 5 -28 20 -28 15 0 20 7 20 29
0 27 -20 47 -34 34z"/>
<path d="M2577 3723 c-4 -3 -7 -19 -7 -35 0 -21 5 -28 20 -28 16 0 20 7 20 35
0 33 -16 46 -33 28z"/>
<path d="M911 5641 c-20 -37 -14 -51 25 -51 34 0 35 1 32 33 -4 39 -40 51 -57
18z"/>
<path d="M1431 5641 c-20 -37 -14 -51 25 -51 34 0 35 1 32 33 -4 39 -40 51
-57 18z"/>
<path d="M1951 5641 c-20 -37 -14 -51 25 -51 34 0 35 1 32 33 -4 39 -40 51
-57 18z"/>
<path d="M926 5379 c-29 -23 -33 -54 -10 -87 12 -18 25 -22 64 -22 53 0 80 22
80 66 0 29 -45 64 -80 64 -15 0 -39 -9 -54 -21z"/>
<path d="M1446 5379 c-29 -23 -33 -54 -10 -87 12 -18 25 -22 64 -22 53 0 80
22 80 66 0 29 -45 64 -80 64 -15 0 -39 -9 -54 -21z"/>
<path d="M1966 5379 c-29 -23 -33 -54 -10 -87 12 -18 25 -22 64 -22 53 0 80
22 80 66 0 29 -45 64 -80 64 -15 0 -39 -9 -54 -21z"/>
<path d="M921 4104 c-12 -15 -21 -37 -21 -50 0 -23 3 -24 80 -24 77 0 80 1 80
24 0 13 -9 35 -21 50 -16 20 -29 26 -59 26 -30 0 -43 -6 -59 -26z"/>
<path d="M1441 4104 c-12 -15 -21 -37 -21 -50 0 -23 3 -24 80 -24 77 0 80 1
80 24 0 13 -9 35 -21 50 -16 20 -29 26 -59 26 -30 0 -43 -6 -59 -26z"/>
<path d="M1961 4104 c-12 -15 -21 -37 -21 -50 0 -23 3 -24 80 -24 77 0 80 1
80 24 0 13 -9 35 -21 50 -16 20 -29 26 -59 26 -30 0 -43 -6 -59 -26z"/>
<path d="M2503 4120 c-25 -10 -43 -39 -43 -69 0 -19 6 -21 75 -21 l75 0 0 34
c0 18 -6 39 -13 45 -20 16 -69 22 -94 11z"/>
<path d="M1023 3733 c-7 -3 -13 -20 -13 -39 0 -30 3 -34 25 -34 21 0 25 5 25
29 0 31 -17 51 -37 44z"/>
<path d="M907 3723 c-4 -3 -7 -19 -7 -35 0 -23 4 -28 25 -28 19 0 25 5 25 23
0 33 -26 57 -43 40z"/>
<path d="M1543 3733 c-7 -3 -13 -20 -13 -39 0 -30 3 -34 25 -34 21 0 25 5 25
29 0 31 -17 51 -37 44z"/>
<path d="M1427 3723 c-4 -3 -7 -19 -7 -35 0 -23 4 -28 25 -28 19 0 25 5 25 23
0 33 -26 57 -43 40z"/>
<path d="M2063 3733 c-7 -3 -13 -20 -13 -39 0 -30 3 -34 25 -34 21 0 25 5 25
29 0 31 -17 51 -37 44z"/>
<path d="M1947 3723 c-4 -3 -7 -19 -7 -35 0 -23 4 -28 25 -28 19 0 25 5 25 23
0 33 -26 57 -43 40z"/>
<path d="M912 2368 c-7 -7 -12 -25 -12 -40 0 -24 4 -28 30 -28 26 0 30 4 30
28 0 26 -15 52 -30 52 -3 0 -11 -5 -18 -12z"/>
<path d="M1432 2368 c-7 -7 -12 -25 -12 -40 0 -24 4 -28 30 -28 26 0 30 4 30
28 0 26 -15 52 -30 52 -3 0 -11 -5 -18 -12z"/>
<path d="M1952 2368 c-7 -7 -12 -25 -12 -40 0 -24 4 -28 30 -28 26 0 30 4 30
28 0 26 -15 52 -30 52 -3 0 -11 -5 -18 -12z"/>
<path d="M2467 2363 c-4 -3 -7 -20 -7 -36 0 -22 4 -28 16 -23 9 3 20 6 25 6 5
0 9 14 9 30 0 22 -5 30 -18 30 -10 0 -22 -3 -25 -7z"/>
<path d="M906 2095 c-14 -38 -7 -55 25 -55 28 0 30 2 27 33 -2 24 -8 33 -24
35 -13 2 -24 -4 -28 -13z"/>
<path d="M1426 2095 c-14 -38 -7 -55 25 -55 28 0 30 2 27 33 -2 24 -8 33 -24
35 -13 2 -24 -4 -28 -13z"/>
<path d="M1946 2095 c-14 -38 -7 -55 25 -55 28 0 30 2 27 33 -2 24 -8 33 -24
35 -13 2 -24 -4 -28 -13z"/>
<path d="M2466 2094 c-13 -35 -7 -54 19 -54 22 0 25 4 25 35 0 28 -4 35 -19
35 -10 0 -22 -7 -25 -16z"/>
<path d="M955 1816 l-30 -12 34 -12 c43 -15 41 -16 41 13 0 28 -3 29 -45 11z"/>
<path d="M1475 1816 l-30 -12 34 -12 c43 -15 41 -16 41 13 0 28 -3 29 -45 11z"/>
<path d="M1995 1816 l-30 -12 34 -12 c43 -15 41 -16 41 13 0 28 -3 29 -45 11z"/>
<path d="M2528 1816 l-28 -12 30 -11 c28 -11 30 -10 30 13 0 13 -1 24 -2 23
-2 0 -15 -6 -30 -13z"/>
<path d="M7830 1565 l-1565 -1565 110 0 110 0 1458 1458 1458 1458 -3 107 -3
107 -1565 -1565z"/>
<path d="M8050 1338 l-1345 -1338 110 0 110 0 1238 1238 1238 1238 -3 100 -3
101 -1345 -1339z"/>
<path d="M8275 1120 l-1120 -1120 110 2 110 3 1013 1016 1013 1017 -3 101 -3
101 -1120 -1120z"/>
<path d="M8497 902 l-898 -897 108 -3 107 -3 793 794 794 793 -3 107 -3 107
-898 -898z"/>
<path d="M8715 680 l-680 -680 110 0 110 0 573 573 573 573 -3 107 -3 107
-680 -680z"/>
<path d="M8935 460 l-460 -460 110 0 110 0 353 353 353 353 -3 107 -3 107
-460 -460z"/>
<path d="M9155 240 l-240 -240 110 0 110 0 133 133 133 133 -3 107 -3 107
-240 -240z"/>
<path d="M9375 20 c-18 -19 -17 -20 3 -20 15 0 22 6 22 20 0 11 -2 20 -3 20
-2 0 -12 -9 -22 -20z"/>
</g>
</svg>
