<?xml version="1.0" standalone="no"?>
<!DOCTYPE svg PUBLIC "-//W3C//DTD SVG 20010904//EN"
 "http://www.w3.org/TR/2001/REC-SVG-20010904/DTD/svg10.dtd">
<svg version="1.0" xmlns="http://www.w3.org/2000/svg"
 width="300.000000pt" height="91.000000pt" viewBox="0 0 300.000000 91.000000"
 preserveAspectRatio="xMidYMid meet">
<metadata>
Created by potrace 1.10, written by Peter Selinger 2001-2011
</metadata>
<g transform="translate(0.000000,91.000000) scale(0.100000,-0.100000)"
fill="#000000" stroke="none">
<path d="M1092 578 c-7 -7 -12 -20 -12 -30 0 -10 -8 -30 -17 -44 -12 -19 -14
-30 -6 -43 7 -12 7 -20 -3 -29 -20 -19 -18 -96 4 -114 19 -17 148 -23 157 -7
4 5 14 5 26 -2 15 -7 24 -7 34 1 8 7 15 7 19 1 4 -6 59 -9 137 -8 111 2 133 5
143 19 12 17 14 17 31 -2 15 -17 29 -19 134 -16 64 1 121 5 127 8 5 4 16 3 24
-2 20 -12 50 16 50 47 0 13 6 32 12 43 10 15 10 22 1 31 -7 7 -10 29 -6 60 4
35 1 55 -11 73 -16 25 -17 25 -136 22 -128 -4 -146 -10 -153 -54 l-4 -27 -2
26 c-2 46 -24 54 -145 55 -61 1 -117 -3 -123 -8 -9 -7 -18 -6 -28 2 -12 10
-18 10 -30 0 -12 -10 -18 -10 -30 0 -11 9 -19 10 -28 1 -9 -7 -17 -7 -23 -1
-19 19 -54 -18 -54 -57 0 -30 -2 -34 -15 -23 -8 7 -15 22 -15 35 0 12 -8 29
-18 38 -22 20 -25 20 -40 5z m26 -65 c-2 -40 -6 -48 -22 -48 -11 0 -21 6 -24
13 -2 7 2 10 12 6 13 -5 16 2 16 35 0 23 5 41 11 41 6 0 9 -19 7 -47z m112 27
c0 -11 7 -20 15 -20 8 0 15 9 15 20 0 11 5 20 10 20 6 0 10 -22 10 -50 0 -27
-4 -50 -10 -50 -5 0 -10 11 -10 25 0 16 -6 25 -15 25 -9 0 -15 -9 -15 -25 0
-14 -4 -25 -10 -25 -5 0 -10 23 -10 50 0 28 5 50 10 50 6 0 10 -9 10 -20z
m118 -19 c16 -52 15 -71 -2 -48 -16 21 -36 22 -36 2 0 -8 -4 -15 -10 -15 -12
0 -12 0 1 41 6 19 12 40 15 47 7 23 21 12 32 -27z m88 24 c4 -8 1 -21 -4 -28
-7 -8 -7 -18 -2 -27 12 -19 12 -30 1 -30 -5 0 -12 11 -15 25 -4 14 -11 25 -17
25 -6 0 -9 -9 -6 -20 3 -11 1 -23 -4 -26 -5 -3 -9 18 -9 45 0 48 2 51 25 51
14 0 28 -7 31 -15z m81 -1 c3 -8 1 -20 -5 -26 -8 -8 -8 -17 -1 -30 6 -11 7
-23 3 -26 -4 -4 -9 -2 -11 4 -2 6 -10 20 -18 30 -14 18 -14 17 -15 -10 0 -47
-12 -22 -14 29 -1 43 0 45 27 45 16 0 30 -7 34 -16z m33 -34 c0 -27 -4 -50
-10 -50 -5 0 -10 23 -10 50 0 28 5 50 10 50 6 0 10 -22 10 -50z m68 30 c5 -13
3 -13 -12 -1 -9 8 -20 11 -23 7 -4 -4 6 -17 22 -30 25 -20 28 -26 16 -40 -17
-20 -35 -20 -52 0 -11 13 -9 14 14 9 34 -9 35 7 2 29 -15 10 -22 22 -18 32 7
19 45 15 51 -6z m79 -12 l7 -33 6 30 c3 17 10 30 15 30 5 0 12 -13 15 -30 l6
-30 7 33 c3 17 10 32 15 32 9 0 -9 -84 -21 -96 -4 -4 -10 8 -14 27 l-6 33 -13
-34 c-13 -37 -15 -35 -33 33 -6 23 -6 37 0 37 5 0 13 -15 16 -32z m136 25
c-27 -5 -31 -32 -5 -34 16 -1 16 -2 0 -6 -25 -6 -23 -33 2 -33 11 0 20 -4 20
-9 0 -4 -13 -8 -30 -7 -29 1 -30 3 -30 49 0 47 0 47 33 46 23 -1 26 -3 10 -6z
m90 -8 c4 -8 2 -17 -4 -21 -6 -4 -5 -11 3 -21 10 -12 9 -17 -5 -28 -34 -25
-52 -12 -54 38 -2 46 -1 47 26 47 16 0 31 -7 34 -15z m-255 -96 c-18 -11 -30
4 -22 26 7 17 8 17 21 -1 10 -14 10 -19 1 -25z m-508 27 c0 -3 -4 -8 -10 -11
-5 -3 -10 -1 -10 4 0 6 5 11 10 11 6 0 10 -2 10 -4z m280 -46 c0 -5 -4 -10 -9
-10 -6 0 -13 5 -16 10 -3 6 1 10 9 10 9 0 16 -4 16 -10z m-315 -24 c23 -35 3
-75 -37 -76 -15 0 -18 9 -18 50 0 43 3 50 20 50 11 0 26 -11 35 -24z m85 14
c0 -5 -9 -10 -20 -10 -11 0 -20 -4 -20 -10 0 -5 7 -10 15 -10 8 0 15 -4 15
-10 0 -5 -7 -10 -15 -10 -8 0 -15 -4 -15 -10 0 -5 9 -10 20 -10 11 0 20 -4 20
-10 0 -5 -13 -10 -30 -10 -29 0 -30 1 -30 50 0 49 1 50 30 50 17 0 30 -4 30
-10z m36 -22 l7 -33 10 33 c12 39 30 43 21 5 -19 -77 -36 -90 -47 -36 -3 16
-9 36 -12 46 -4 9 -3 17 3 17 6 0 14 -15 18 -32z m114 22 c0 -5 -9 -10 -20
-10 -11 0 -20 -4 -20 -10 0 -5 7 -10 15 -10 8 0 15 -4 15 -10 0 -5 -7 -10 -15
-10 -8 0 -15 -4 -15 -10 0 -5 9 -10 20 -10 11 0 20 -4 20 -10 0 -5 -13 -10
-30 -10 -29 0 -30 2 -30 43 0 24 3 47 7 50 10 11 53 8 53 -3z m40 -30 c0 -33
3 -40 20 -40 11 0 20 -4 20 -10 0 -5 -13 -10 -30 -10 -29 0 -30 1 -30 50 0 28
5 50 10 50 6 0 10 -18 10 -40z m110 19 c15 -26 9 -59 -12 -72 -23 -15 -48 8
-48 42 0 48 40 68 60 30z m78 12 c21 -13 10 -46 -16 -49 -17 -3 -21 -8 -17
-23 4 -11 2 -19 -4 -19 -6 0 -11 21 -11 50 0 52 14 63 48 41z m59 -23 l11 -33
7 33 c4 18 12 31 17 30 12 -4 19 -98 7 -98 -5 0 -10 12 -10 28 -1 20 -2 22 -6
7 -9 -38 -23 -40 -30 -4 l-7 34 -7 -35 c-6 -31 -7 -30 -8 18 -1 59 11 68 26
20z m123 22 c0 -5 -9 -10 -20 -10 -11 0 -20 -4 -20 -10 0 -5 7 -10 15 -10 8 0
15 -4 15 -10 0 -5 -7 -10 -15 -10 -8 0 -15 -4 -15 -10 0 -5 9 -10 19 -10 11 0
23 -4 26 -10 4 -6 -7 -10 -24 -10 -30 0 -31 1 -31 50 0 47 2 50 25 50 14 0 25
-4 25 -10z m54 -17 l15 -28 1 28 c0 15 5 27 10 27 6 0 10 -22 10 -50 0 -58
-10 -63 -33 -17 l-16 32 0 -32 c-1 -54 -21 -37 -21 17 0 56 12 64 34 23z m116
17 c0 -5 -7 -10 -15 -10 -11 0 -16 -12 -17 -42 l-1 -43 -4 43 c-3 28 -9 42
-19 42 -8 0 -14 5 -14 10 0 6 16 10 35 10 19 0 35 -4 35 -10z"/>
<path d="M1320 520 c0 -5 5 -10 11 -10 5 0 7 5 4 10 -3 6 -8 10 -11 10 -2 0
-4 -4 -4 -10z"/>
<path d="M1397 543 c-12 -11 -8 -23 8 -23 8 0 15 7 15 15 0 16 -12 20 -23 8z"/>
<path d="M1470 536 c0 -9 7 -16 16 -16 9 0 14 5 12 12 -6 18 -28 21 -28 4z"/>
<path d="M1880 535 c0 -9 5 -15 11 -13 6 2 11 8 11 13 0 5 -5 11 -11 13 -6 2
-11 -4 -11 -13z"/>
<path d="M1880 496 c0 -9 7 -16 16 -16 17 0 14 22 -4 28 -7 2 -12 -3 -12 -12z"/>
<path d="M1086 383 c0 -16 4 -30 9 -33 12 -8 29 25 22 44 -10 26 -32 19 -31
-11z"/>
<path d="M1466 394 c-7 -19 11 -57 25 -49 15 10 11 65 -5 65 -8 0 -17 -7 -20
-16z"/>
<path d="M1552 399 c2 -6 8 -10 13 -10 5 0 11 4 13 10 2 6 -4 11 -13 11 -9 0
-15 -5 -13 -11z"/>
</g>
</svg>
