<?xml version="1.0" standalone="no"?>
<!DOCTYPE svg PUBLIC "-//W3C//DTD SVG 20010904//EN"
 "http://www.w3.org/TR/2001/REC-SVG-20010904/DTD/svg10.dtd">
<svg version="1.0" xmlns="http://www.w3.org/2000/svg"
 width="940.000000pt" height="788.000000pt" viewBox="0 0 940.000000 788.000000"
 preserveAspectRatio="xMidYMid meet">
<metadata>
Created by potrace 1.16, written by Peter Selinger 2001-2019
</metadata>
<g transform="translate(0.000000,788.000000) scale(0.100000,-0.100000)"
fill="#000000" stroke="none">
<path d="M0 3940 l0 -3940 2803 0 2802 0 715 715 715 715 87 0 88 0 0 87 0 88
1095 1095 1095 1095 0 110 0 110 -1095 -1095 -1095 -1095 0 110 0 110 1095
1095 1095 1095 0 110 0 110 -1095 -1095 -1095 -1095 0 110 0 110 1095 1095
1095 1095 0 110 0 110 -1095 -1095 -1095 -1095 0 110 0 110 1095 1095 1095
1095 0 110 0 110 -1095 -1095 -1095 -1095 0 110 0 110 1095 1095 1095 1095 0
110 0 110 -1095 -1095 -1095 -1095 0 110 0 110 1095 1095 1095 1095 0 110 0
110 -1095 -1095 -1095 -1095 0 110 0 110 1095 1095 1095 1095 0 110 0 110
-877 -875 c-483 -481 -976 -972 -1095 -1090 l-218 -215 0 108 0 108 1095 1091
1095 1090 0 117 0 116 -1095 -1095 -1095 -1095 0 110 0 110 1095 1095 1095
1095 0 110 0 110 -1095 -1095 -1095 -1095 0 110 0 110 1095 1095 1095 1095 0
57 0 58 -52 0 -53 0 -1042 -1042 -1043 -1043 0 110 0 110 932 932 933 933
-110 0 -110 0 -822 -822 -823 -823 0 110 0 110 712 712 713 713 -110 0 -110 0
-715 -715 -715 -715 -110 0 -110 0 715 715 715 715 -110 0 -110 0 -715 -715
-715 -715 -110 0 -110 0 715 715 715 715 -110 0 -110 0 -715 -715 -715 -715
-110 0 -110 0 715 715 715 715 -110 0 -110 0 -715 -715 -715 -715 -42 0 -43 0
0 67 0 68 647 647 648 648 -110 0 -110 0 -530 -530 c-291 -292 -533 -530 -537
-530 -5 0 -8 46 -8 102 l0 103 427 427 428 428 -111 0 -110 0 -317 -311 -317
-311 0 110 0 110 206 201 205 201 -113 0 -113 0 -92 -92 -93 -93 0 93 0 92
-2790 0 -2790 0 0 -3940z m902 2888 l3 -33 108 -3 107 -3 0 -34 0 -35 -110 0
-110 0 0 -35 c0 -32 -2 -35 -30 -35 l-30 0 0 105 0 105 29 0 c26 0 30 -4 33
-32z m520 0 l3 -33 108 -3 107 -3 0 -34 0 -35 -110 0 -110 0 0 -35 c0 -32 -2
-35 -30 -35 l-30 0 0 105 0 105 29 0 c26 0 30 -4 33 -32z m520 0 l3 -33 108
-3 107 -3 0 -34 0 -35 -110 0 -110 0 0 -35 c0 -32 -2 -35 -30 -35 l-30 0 0
105 0 105 29 0 c26 0 30 -4 33 -32z m520 0 l3 -33 108 -3 107 -3 0 -34 0 -35
-110 0 -110 0 0 -35 c0 -32 -2 -35 -30 -35 l-30 0 0 105 0 105 29 0 c26 0 30
-4 33 -32z m520 0 l3 -33 108 -3 107 -3 0 -34 0 -35 -110 0 -110 0 0 -35 c0
-32 -2 -35 -30 -35 l-30 0 0 105 0 105 29 0 c26 0 30 -4 33 -32z m530 0 l3
-33 108 -3 107 -3 0 -34 0 -35 -110 0 -110 0 0 -35 c0 -32 -2 -35 -30 -35
l-30 0 0 105 0 105 29 0 c26 0 30 -4 33 -32z m-2392 -250 c0 -29 -8 -39 -72
-83 l-71 -50 72 -3 71 -3 0 -34 0 -35 -140 0 -140 0 0 33 c1 28 9 38 73 82
l72 50 -72 3 -73 3 0 34 0 35 140 0 140 0 0 -32z m520 0 c0 -29 -8 -39 -72
-83 l-71 -50 72 -3 71 -3 0 -34 0 -35 -140 0 -140 0 0 33 c1 28 9 38 73 82
l72 50 -72 3 -73 3 0 34 0 35 140 0 140 0 0 -32z m520 0 c0 -29 -8 -39 -72
-83 l-71 -50 72 -3 71 -3 0 -34 0 -35 -140 0 -140 0 0 33 c1 28 9 38 73 82
l72 50 -72 3 -73 3 0 34 0 35 140 0 140 0 0 -32z m520 0 c0 -29 -8 -38 -65
-78 -36 -25 -65 -48 -65 -52 0 -5 30 -8 66 -8 l65 0 -3 -37 -3 -38 -135 0
-135 0 -3 35 c-3 34 0 38 63 79 36 24 68 47 71 52 3 5 -27 9 -65 9 l-71 0 0
35 0 35 140 0 140 0 0 -32z m520 0 c0 -29 -8 -38 -65 -78 -36 -25 -65 -48 -65
-52 0 -5 30 -8 66 -8 l65 0 -3 -37 -3 -38 -135 0 -135 0 -3 35 c-3 34 0 38 63
79 36 24 68 47 71 52 3 5 -27 9 -65 9 l-71 0 0 35 0 35 140 0 140 0 0 -32z
m530 0 c0 -29 -8 -38 -65 -78 -36 -25 -65 -48 -65 -52 0 -5 30 -8 66 -8 l65 0
-3 -37 -3 -38 -135 0 -135 0 -3 35 c-3 34 0 38 63 79 36 24 68 47 71 52 3 5
-27 9 -65 9 l-71 0 0 35 0 35 140 0 140 0 0 -32z m-2830 -318 c0 -57 1 -60 25
-60 24 0 25 3 25 55 0 54 0 55 30 55 30 0 30 -1 30 -55 0 -52 1 -55 25 -55 24
0 25 3 25 60 l0 60 30 0 30 0 0 -95 0 -95 -140 0 -140 0 0 95 0 95 30 0 30 0
0 -60z m520 0 c0 -57 1 -60 25 -60 24 0 25 3 25 55 0 54 0 55 30 55 30 0 30
-1 30 -55 0 -52 1 -55 25 -55 24 0 25 3 25 60 l0 60 30 0 30 0 0 -95 0 -95
-140 0 -140 0 0 95 0 95 30 0 30 0 0 -60z m520 0 c0 -57 1 -60 25 -60 24 0 25
3 25 55 0 54 0 55 30 55 30 0 30 -1 30 -55 0 -52 1 -55 25 -55 24 0 25 3 25
60 l0 60 30 0 30 0 0 -95 0 -95 -140 0 -140 0 0 95 0 95 30 0 30 0 0 -60z
m530 52 c0 -4 32 -8 70 -8 39 0 70 4 70 8 0 4 16 8 35 8 19 0 35 -4 35 -10 0
-6 47 -10 120 -10 73 0 120 4 120 10 0 6 16 10 35 10 19 0 35 -4 35 -8 0 -4
32 -8 70 -8 39 0 70 4 70 8 0 4 16 8 35 8 19 0 35 -4 35 -10 0 -6 48 -10 125
-10 77 0 125 4 125 10 0 6 16 10 35 10 19 0 35 -4 35 -8 0 -4 32 -8 70 -8 39
0 70 4 70 8 0 4 16 8 35 8 19 0 35 -4 35 -10 0 -7 563 -10 1670 -10 1107 0
1670 -3 1670 -10 0 -7 -734 -10 -2181 -10 l-2181 0 5 -22 c2 -13 52 -189 111
-392 59 -203 105 -374 103 -379 -1 -5 -42 127 -90 294 -48 167 -100 347 -115
399 l-28 95 -177 3 c-107 1 -177 6 -177 12 0 6 14 10 30 10 17 0 30 5 30 10 0
6 16 10 35 10 19 0 35 -4 35 -8z m1 -142 c21 -6 44 -21 53 -35 15 -23 37 -157
41 -258 2 -33 8 -52 20 -61 11 -8 16 -20 12 -30 -4 -10 6 -45 23 -82 39 -87
58 -175 43 -206 -6 -13 -14 -31 -17 -41 -5 -15 -9 -16 -26 -7 -18 10 -20 8
-20 -24 0 -19 5 -36 11 -38 6 -2 26 -78 45 -168 49 -235 48 -224 31 -242 -12
-12 -13 -18 -4 -28 9 -10 9 -14 0 -17 -15 -5 -18 -43 -4 -43 6 0 6 -12 1 -31
-11 -38 11 -69 34 -50 10 9 15 8 20 -5 3 -9 4 -19 1 -24 -3 -4 3 -6 14 -3 12
3 20 -2 24 -14 3 -10 26 -79 51 -153 25 -74 46 -142 46 -150 0 -9 -24 -26 -57
-42 -32 -14 -112 -51 -178 -82 -118 -55 -120 -56 -126 -34 -13 42 -90 292
-121 388 -17 52 -37 102 -44 111 -11 12 -14 65 -14 247 l0 231 50 28 c27 15
50 31 50 35 0 4 -21 28 -47 53 l-48 45 -3 330 -3 330 36 17 c19 9 35 22 35 28
0 11 20 35 30 35 3 0 21 -5 41 -10z m-1351 -135 l0 -35 -67 -1 -68 -1 65 -22
c62 -21 65 -24 68 -57 l3 -35 -73 -24 -73 -25 73 -3 72 -3 0 -34 0 -35 -140 0
-140 0 0 49 0 49 80 27 c44 15 80 30 80 34 0 4 -35 18 -77 32 l-78 25 -3 47
-3 47 140 0 141 0 0 -35z m520 0 l0 -35 -67 -1 -68 -1 65 -22 c62 -21 65 -24
68 -57 l3 -35 -73 -24 -73 -25 73 -3 72 -3 0 -34 0 -35 -140 0 -140 0 0 49 0
49 80 27 c44 15 80 30 80 34 0 4 -35 18 -77 32 l-78 25 -3 47 -3 47 140 0 141
0 0 -35z m520 0 l0 -35 -67 -1 -68 -1 65 -22 c62 -21 65 -24 68 -57 l3 -35
-73 -24 -73 -25 73 -3 72 -3 0 -34 0 -35 -140 0 -140 0 0 49 0 49 80 27 c44
15 80 30 80 34 0 4 -35 18 -77 32 l-78 25 -3 47 -3 47 140 0 141 0 0 -35z
m2748 -194 c12 -6 22 -8 22 -4 0 4 4 3 8 -3 6 -10 80 -27 212 -50 19 -3 40 -7
45 -8 6 -2 28 -6 50 -10 22 -4 54 -13 70 -19 17 -7 32 -12 35 -13 3 0 19 -6
35 -13 17 -6 46 -18 65 -25 19 -8 73 -30 118 -50 46 -20 88 -36 92 -36 5 0 21
-5 37 -12 15 -7 33 -12 38 -13 6 0 35 -10 65 -21 30 -12 80 -29 110 -39 30
-10 63 -25 74 -34 10 -9 19 -14 20 -12 1 5 50 -10 56 -18 3 -3 30 -15 60 -25
30 -11 74 -30 98 -43 23 -12 49 -23 57 -23 8 0 15 -4 15 -9 0 -5 14 -12 30
-16 17 -4 30 -11 30 -17 0 -6 3 -8 7 -5 3 4 16 1 27 -6 12 -8 34 -17 50 -21
16 -4 41 -16 54 -27 14 -10 29 -19 34 -19 6 0 22 -8 36 -18 15 -10 47 -24 71
-31 24 -7 60 -23 80 -35 20 -13 46 -26 57 -30 12 -4 34 -18 50 -31 16 -14 45
-30 64 -36 19 -6 42 -17 50 -24 8 -6 36 -22 62 -34 36 -17 46 -27 43 -42 -2
-11 2 -19 10 -19 10 0 15 17 18 63 2 34 4 -384 5 -929 l2 -991 -152 54 c-84
30 -245 83 -358 119 -581 184 -1706 576 -1830 637 -53 26 -63 56 -28 86 81 69
74 68 -22 -5 -36 -27 -70 -56 -77 -64 -10 -14 -26 -81 -20 -87 2 -1 309 -106
683 -233 1103 -375 1037 -350 1104 -420 35 -36 154 -88 597 -256 l103 -39 -2
-650 c-1 -357 -4 -618 -7 -580 -4 42 -9 65 -14 57 -5 -7 -14 -9 -20 -5 -7 4
-31 8 -55 9 -24 1 -48 6 -55 11 -7 5 -43 11 -82 12 -38 1 -71 6 -73 11 -2 5
-9 7 -17 4 -7 -3 -44 4 -81 16 -38 11 -91 23 -119 26 -59 6 -152 32 -179 50
-11 8 -52 23 -90 35 -39 12 -75 25 -80 30 -6 5 -20 9 -33 9 -13 0 -23 5 -23
10 0 6 -11 10 -25 10 -14 0 -25 5 -25 10 0 6 -9 10 -19 10 -32 0 -88 61 -96
103 -13 68 76 261 228 497 99 152 124 233 97 305 -6 15 -14 25 -19 23 -6 -2
-139 -178 -298 -393 -486 -657 -588 -789 -647 -840 -31 -26 -59 -58 -62 -71
l-6 -24 -824 0 -824 0 0 -45 0 -45 55 0 55 0 0 -35 0 -35 -140 0 -140 0 0 35
0 35 50 0 50 0 0 45 0 45 -230 0 -230 0 0 -45 0 -45 55 0 55 0 0 -35 0 -35
-140 0 -140 0 0 35 0 35 50 0 50 0 0 45 0 45 -225 0 -225 0 0 -45 0 -45 55 0
55 0 0 -35 0 -35 -140 0 -140 0 0 35 0 35 50 0 50 0 0 45 0 45 -71 0 -71 0 94
77 c416 344 983 814 1071 889 49 42 87 82 87 93 0 25 38 57 86 74 50 17 214
153 214 178 0 20 43 53 82 62 35 9 134 90 150 124 7 15 32 36 54 47 57 29 152
106 157 128 3 10 22 25 44 34 50 21 156 113 149 130 -3 9 8 17 33 24 38 10
151 94 151 111 0 9 -64 39 -84 39 -25 0 -134 -91 -145 -120 -5 -17 -16 -30
-23 -30 -7 0 -42 14 -76 30 -71 34 -94 37 -112 16 -6 -8 -34 -29 -61 -47 -61
-39 -64 -68 -8 -84 42 -12 69 -32 69 -51 0 -8 -8 -14 -19 -14 -26 0 -137 -88
-161 -128 -24 -39 -38 -39 -120 -6 -36 14 -73 23 -85 20 -36 -9 -136 -92 -153
-128 -13 -25 -26 -35 -58 -43 -48 -12 -226 -144 -243 -181 -11 -24 -79 -63
-112 -64 -9 0 -39 -15 -65 -33 -27 -18 -62 -38 -78 -45 -27 -12 -28 -12 -15 4
8 10 31 33 52 52 26 25 37 43 37 63 0 27 7 33 75 64 88 40 174 102 175 127 0
21 46 58 72 58 28 0 168 109 168 131 0 20 28 39 58 39 24 0 142 89 165 124 10
14 29 29 44 32 35 9 398 277 398 294 0 7 -39 27 -92 46 l-92 33 -192 -137
c-105 -75 -196 -147 -202 -159 -6 -14 -25 -27 -47 -33 -21 -6 -43 -17 -50 -25
-6 -7 -34 -28 -61 -45 -27 -18 -49 -37 -49 -43 0 -19 -33 -47 -55 -47 -28 0
-129 -70 -181 -126 -29 -31 -49 -44 -68 -44 -17 0 -51 -19 -93 -50 -36 -27
-70 -50 -74 -50 -5 0 -9 -9 -9 -19 0 -31 -47 -61 -96 -61 -24 0 -44 5 -44 10
0 6 20 31 45 56 25 24 45 49 45 54 0 20 45 50 74 50 17 0 45 9 61 19 38 25
120 102 126 119 2 7 24 19 48 28 54 18 158 92 189 133 12 17 32 31 43 31 27 0
165 94 171 117 3 11 21 24 44 31 49 15 159 93 159 112 0 8 14 17 30 20 38 8
115 58 115 75 0 10 -407 166 -432 165 -20 0 -147 -91 -153 -109 -4 -14 -15
-21 -31 -21 -36 0 -164 -78 -175 -107 -6 -16 -16 -23 -35 -23 -32 0 -167 -82
-188 -116 -11 -16 -26 -24 -44 -24 -35 0 -182 -94 -189 -121 -6 -23 -40 -39
-82 -39 -26 0 -85 -33 -117 -65 -8 -7 -23 -17 -34 -20 -11 -3 -20 -13 -20 -21
0 -20 -36 -54 -57 -54 -10 0 -24 4 -31 9 -19 12 4 47 40 62 16 6 28 17 28 25
0 20 41 44 75 44 21 0 53 18 105 56 41 30 77 61 79 67 6 17 23 27 47 27 24 0
172 93 191 120 7 10 25 21 40 25 43 11 181 97 186 117 3 11 14 18 28 18 35 0
280 150 277 169 -2 9 -40 29 -91 48 l-88 33 -117 -71 c-64 -39 -127 -82 -139
-96 -12 -15 -32 -27 -45 -29 -34 -3 -164 -81 -182 -109 -11 -17 -26 -25 -44
-25 -29 0 -182 -84 -182 -100 0 -18 -33 -40 -61 -40 -16 0 -48 -9 -69 -20 -22
-11 -40 -18 -40 -16 0 2 29 25 65 51 36 25 69 55 75 65 7 12 21 20 37 20 32 0
200 99 206 121 2 9 19 18 38 22 45 7 181 87 187 109 3 11 14 18 30 18 19 0
164 73 191 96 9 8 -22 32 -58 44 -38 12 -41 11 -115 -30 -42 -23 -84 -53 -93
-66 -9 -15 -22 -23 -30 -19 -21 7 -180 -85 -192 -112 -7 -15 -18 -21 -38 -21
-33 1 -189 -86 -204 -114 -5 -10 -19 -18 -31 -18 -29 0 -210 -104 -226 -129
-7 -12 -22 -21 -35 -21 -12 0 -39 -9 -60 -20 l-38 -21 3 62 3 63 340 188 c187
103 340 190 340 194 0 3 -24 16 -54 28 -30 12 -56 26 -58 31 -3 12 237 144
316 174 86 33 176 24 341 -34 249 -86 925 -313 951 -319 23 -5 26 -3 24 19 -2
13 -6 29 -10 34 -3 6 1 11 11 11 13 0 11 5 -9 24 -24 23 -25 26 -11 40 14 15
14 16 0 16 -9 0 -16 5 -16 11 0 5 5 7 10 4 6 -3 10 -1 10 4 0 6 -9 11 -21 11
-11 0 -17 5 -14 10 3 6 1 10 -6 10 -7 0 -9 3 -6 6 4 4 13 1 22 -6 8 -7 15 -8
15 -2 0 5 -10 16 -22 25 -20 13 -21 17 -9 29 12 11 13 10 7 -7 -6 -20 -6 -20
9 0 9 11 11 21 6 23 -15 5 -1 32 17 32 8 0 12 3 8 7 -10 10 115 125 397 366
116 100 128 113 142 160 19 63 20 101 2 94 -11 -4 -249 -168 -322 -222 -16
-12 -92 -68 -167 -124 -76 -55 -142 -101 -149 -101 -11 0 68 66 150 125 23 17
62 47 86 68 23 21 92 77 152 125 75 62 107 94 106 107 -1 11 2 39 6 62 6 29 5
46 -3 52 -7 6 -59 22 -117 36 -57 15 -155 42 -218 60 l-115 34 -104 -45 c-57
-25 -108 -44 -114 -42 -12 4 -23 70 -21 123 8 238 12 306 17 340 11 72 16 109
21 165 12 116 13 118 61 151 59 40 206 104 299 130 136 37 217 40 273 10z
m-3907 -140 c23 -23 29 -39 29 -70 l0 -41 45 0 c45 0 45 0 45 -35 l0 -35 -140
0 -140 0 0 60 c0 67 19 122 47 139 35 20 83 13 114 -18z m520 0 c23 -23 29
-39 29 -70 l0 -41 45 0 c45 0 45 0 45 -35 l0 -35 -140 0 -140 0 0 60 c0 67 19
122 47 139 35 20 83 13 114 -18z m520 0 c23 -23 29 -39 29 -70 l0 -41 45 0
c45 0 45 0 45 -35 l0 -35 -140 0 -140 0 0 60 c0 67 19 122 47 139 35 20 83 13
114 -18z m-1009 -241 c55 -16 88 -60 88 -121 0 -94 -45 -139 -140 -139 -99 0
-146 50 -138 146 8 98 84 143 190 114z m520 0 c55 -16 88 -60 88 -121 0 -94
-45 -139 -140 -139 -99 0 -146 50 -138 146 8 98 84 143 190 114z m520 0 c55
-16 88 -60 88 -121 0 -94 -45 -139 -140 -139 -99 0 -146 50 -138 146 8 98 84
143 190 114z m-952 -380 l0 -90 -140 0 -140 0 0 35 0 35 110 0 110 0 0 55 c0
54 0 55 30 55 l30 0 0 -90z m520 0 l0 -90 -140 0 -140 0 0 35 0 35 110 0 110
0 0 55 c0 54 0 55 30 55 l30 0 0 -90z m520 0 l0 -90 -140 0 -140 0 0 35 0 35
110 0 110 0 0 55 c0 54 0 55 30 55 l30 0 0 -90z m-1260 -200 c0 -57 1 -60 25
-60 24 0 25 3 25 55 0 54 0 55 30 55 30 0 30 -1 30 -55 0 -52 1 -55 25 -55 24
0 25 3 25 60 l0 60 30 0 30 0 0 -95 0 -95 -140 0 -140 0 0 95 0 95 30 0 30 0
0 -60z m520 0 c0 -57 1 -60 25 -60 24 0 25 3 25 55 0 54 0 55 30 55 30 0 30
-1 30 -55 0 -52 1 -55 25 -55 24 0 25 3 25 60 l0 60 30 0 30 0 0 -95 0 -95
-140 0 -140 0 0 95 0 95 30 0 30 0 0 -60z m520 0 c0 -57 1 -60 25 -60 24 0 25
3 25 55 0 54 0 55 30 55 30 0 30 -1 30 -55 0 -52 1 -55 25 -55 24 0 25 3 25
60 l0 60 30 0 30 0 0 -95 0 -95 -140 0 -140 0 0 95 0 95 30 0 30 0 0 -60z
m-892 -228 c71 -25 72 -26 72 -61 l0 -36 -133 -48 c-72 -26 -135 -47 -139 -47
-5 0 -8 15 -8 34 0 34 1 35 83 62 45 14 86 29 91 32 5 3 -31 19 -80 36 l-89
31 -3 37 -3 38 68 -26 c37 -15 101 -38 141 -52z m520 0 c71 -25 72 -26 72 -61
l0 -36 -133 -48 c-72 -26 -135 -47 -139 -47 -5 0 -8 15 -8 34 0 34 1 35 83 62
45 14 86 29 91 32 5 3 -31 19 -80 36 l-89 31 -3 37 -3 38 68 -26 c37 -15 101
-38 141 -52z m520 0 c71 -25 72 -26 72 -61 l0 -36 -133 -48 c-72 -26 -135 -47
-139 -47 -5 0 -8 15 -8 34 0 34 1 35 83 62 45 14 86 29 91 32 5 3 -31 19 -80
36 l-89 31 -3 37 -3 38 68 -26 c37 -15 101 -38 141 -52z m-1188 -272 c0 -57 1
-60 25 -60 24 0 25 3 25 55 0 54 0 55 30 55 30 0 30 -1 30 -55 0 -52 1 -55 25
-55 24 0 25 3 25 60 l0 60 30 0 30 0 0 -95 0 -95 -140 0 -140 0 0 95 0 95 30
0 30 0 0 -60z m520 0 c0 -57 1 -60 25 -60 24 0 25 3 25 55 0 54 0 55 30 55 30
0 30 -1 30 -55 0 -52 1 -55 25 -55 24 0 25 3 25 60 l0 60 30 0 30 0 0 -95 0
-95 -140 0 -140 0 0 95 0 95 30 0 30 0 0 -60z m520 0 c0 -57 1 -60 25 -60 24
0 25 3 25 55 0 54 0 55 30 55 30 0 30 -1 30 -55 0 -52 1 -55 25 -55 24 0 25 3
25 60 l0 60 30 0 30 0 0 -95 0 -95 -140 0 -140 0 0 95 0 95 30 0 30 0 0 -60z
m-882 -200 c43 -26 62 -74 62 -155 l0 -65 -140 0 -140 0 0 65 c0 117 46 175
140 175 28 0 58 -8 78 -20z m520 0 c43 -26 62 -74 62 -155 l0 -65 -140 0 -140
0 0 65 c0 117 46 175 140 175 28 0 58 -8 78 -20z m520 0 c43 -26 62 -74 62
-155 l0 -65 -140 0 -140 0 0 65 c0 117 46 175 140 175 28 0 58 -8 78 -20z
m-1003 -401 c16 -16 21 -36 24 -104 l3 -85 -141 0 -141 0 0 70 c0 38 5 80 11
94 16 34 62 52 95 37 20 -9 31 -8 52 4 32 17 69 11 97 -16z m520 0 c16 -16 21
-36 24 -104 l3 -85 -141 0 -141 0 0 70 c0 38 5 80 11 94 16 34 62 52 95 37 20
-9 31 -8 52 4 32 17 69 11 97 -16z m520 0 c16 -16 21 -36 24 -104 l3 -85 -141
0 -141 0 0 70 c0 38 5 80 11 94 16 34 62 52 95 37 20 -9 31 -8 52 4 32 17 69
11 97 -16z m1713 -46 c2 -7 -1 -13 -6 -13 -22 0 -148 -94 -155 -116 -6 -17
-16 -24 -34 -24 -37 0 -168 -88 -181 -122 -8 -22 -16 -28 -42 -28 -38 0 -171
-86 -187 -122 -8 -18 -22 -27 -47 -31 -33 -5 -56 -17 -159 -82 -17 -12 -33
-30 -35 -40 -5 -28 -31 -45 -68 -45 -20 0 -44 -10 -62 -25 -17 -14 -44 -28
-61 -31 -29 -6 -31 -5 -31 24 0 35 22 52 67 52 16 0 40 10 53 22 13 12 46 33
73 47 28 14 54 34 59 44 4 9 12 25 17 35 4 9 24 20 43 23 42 7 182 95 194 123
5 11 25 25 45 31 51 15 169 95 180 122 6 16 17 23 34 23 36 0 173 89 177 115
2 13 9 19 21 17 9 -2 25 2 35 7 22 14 64 10 70 -6z m-2948 -253 c0 -57 1 -60
25 -60 24 0 25 3 25 55 0 54 0 55 30 55 30 0 30 -1 30 -55 0 -52 1 -55 25 -55
24 0 25 3 25 60 l0 60 30 0 30 0 0 -95 0 -95 -140 0 -140 0 0 95 0 95 30 0 30
0 0 -60z m520 0 c0 -57 1 -60 25 -60 24 0 25 3 25 55 0 54 0 55 30 55 30 0 30
-1 30 -55 0 -52 1 -55 25 -55 24 0 25 3 25 60 l0 60 30 0 30 0 0 -95 0 -95
-140 0 -140 0 0 95 0 95 30 0 30 0 0 -60z m520 0 c0 -57 1 -60 25 -60 24 0 25
3 25 55 0 54 0 55 30 55 30 0 30 -1 30 -55 0 -52 1 -55 25 -55 24 0 25 3 25
60 l0 60 30 0 30 0 0 -95 0 -95 -140 0 -140 0 0 95 0 95 30 0 30 0 0 -60z
m-942 -196 l122 -38 0 -37 0 -36 -82 -24 -82 -23 82 -24 82 -25 0 -36 0 -36
-128 -39 c-70 -22 -133 -41 -139 -44 -9 -3 -13 7 -13 32 0 20 6 38 13 41 6 2
46 14 87 26 l75 22 -87 25 c-88 25 -88 25 -88 58 0 32 2 34 69 54 37 11 73 20
80 20 22 0 10 18 -16 25 -16 3 -52 13 -80 21 -51 15 -53 17 -53 51 0 29 3 34
18 30 9 -2 72 -22 140 -43z m520 0 l122 -38 0 -37 0 -36 -82 -24 -82 -23 82
-24 82 -25 0 -36 0 -36 -128 -39 c-70 -22 -133 -41 -139 -44 -9 -3 -13 7 -13
32 0 20 6 38 13 41 6 2 46 14 87 26 l75 22 -87 25 c-88 25 -88 25 -88 58 0 32
2 34 69 54 37 11 73 20 80 20 22 0 10 18 -16 25 -16 3 -52 13 -80 21 -51 15
-53 17 -53 51 0 29 3 34 18 30 9 -2 72 -22 140 -43z m520 0 l122 -38 0 -37 0
-36 -82 -24 -82 -23 82 -24 82 -25 0 -36 0 -36 -128 -39 c-70 -22 -133 -41
-139 -44 -9 -3 -13 7 -13 32 0 20 6 38 13 41 6 2 46 14 87 26 l75 22 -87 25
c-88 25 -88 25 -88 58 0 32 2 34 69 54 37 11 73 20 80 20 22 0 10 18 -16 25
-16 3 -52 13 -80 21 -51 15 -53 17 -53 51 0 29 3 34 18 30 9 -2 72 -22 140
-43z m928 -443 c-9 -16 -32 -38 -51 -50 -20 -12 -35 -27 -32 -34 13 -37 -62
-79 -103 -57 -19 10 -19 12 -4 42 9 17 29 35 45 41 18 7 29 19 29 31 0 36 29
56 82 56 l49 0 -15 -29z m-1867 -67 c23 -29 28 -94 11 -138 -7 -20 -16 -26
-41 -26 -26 0 -30 3 -24 18 4 9 10 36 12 60 5 37 3 42 -14 42 -15 0 -25 -12
-37 -45 -10 -25 -27 -52 -39 -60 -57 -40 -127 2 -127 77 0 74 8 88 47 88 30 0
34 -3 27 -17 -4 -10 -9 -35 -12 -55 -6 -50 22 -52 38 -4 20 63 46 86 95 86 35
0 48 -5 64 -26z m520 0 c23 -29 28 -94 11 -138 -7 -20 -16 -26 -41 -26 -26 0
-30 3 -24 18 4 9 10 36 12 60 5 37 3 42 -14 42 -15 0 -25 -12 -37 -45 -10 -25
-27 -52 -39 -60 -57 -40 -127 2 -127 77 0 74 8 88 47 88 30 0 34 -3 27 -17 -4
-10 -9 -35 -12 -55 -6 -50 22 -52 38 -4 20 63 46 86 95 86 35 0 48 -5 64 -26z
m520 0 c23 -29 28 -94 11 -138 -7 -20 -16 -26 -41 -26 -26 0 -30 3 -24 18 4 9
10 36 12 60 5 37 3 42 -14 42 -15 0 -25 -12 -37 -45 -10 -25 -27 -52 -39 -60
-57 -40 -127 2 -127 77 0 74 8 88 47 88 30 0 34 -3 27 -17 -4 -10 -9 -35 -12
-55 -6 -50 22 -52 38 -4 20 63 46 86 95 86 35 0 48 -5 64 -26z m526 -114 c12
-20 -7 -51 -43 -68 -30 -14 -36 -22 -37 -47 0 -24 -7 -33 -33 -46 -41 -21 -72
-14 -72 16 0 26 25 51 62 60 23 6 26 11 22 35 -5 21 -1 31 17 44 26 18 74 21
84 6z m-1545 -135 l0 -35 -140 0 -140 0 0 35 0 35 140 0 140 0 0 -35z m520 0
l0 -35 -140 0 -140 0 0 35 0 35 140 0 140 0 0 -35z m520 0 l0 -35 -140 0 -140
0 0 35 0 35 140 0 140 0 0 -35z m-1040 -103 c0 -36 -3 -40 -50 -62 -33 -16
-50 -30 -50 -42 0 -15 8 -18 50 -18 l50 0 0 -35 0 -35 -140 0 -140 0 0 73 c0
133 68 183 161 116 12 -9 26 -6 65 14 27 14 50 26 52 27 1 0 2 -17 2 -38z
m520 0 c0 -36 -3 -40 -50 -62 -33 -16 -50 -30 -50 -42 0 -15 8 -18 50 -18 l50
0 0 -35 0 -35 -140 0 -140 0 0 73 c0 133 68 183 161 116 12 -9 26 -6 65 14 27
14 50 26 52 27 1 0 2 -17 2 -38z m520 0 c0 -36 -3 -40 -50 -62 -33 -16 -50
-30 -50 -42 0 -15 8 -18 50 -18 l50 0 0 -35 0 -35 -140 0 -140 0 0 73 c0 133
68 183 161 116 12 -9 26 -6 65 14 27 14 50 26 52 27 1 0 2 -17 2 -38z m-1040
-259 c0 -35 -4 -40 -50 -66 -66 -37 -66 -57 0 -57 l50 0 0 -35 0 -35 -140 0
-140 0 0 64 c0 73 14 122 40 136 32 17 88 12 111 -11 l20 -20 52 30 c29 17 53
31 55 31 1 0 2 -17 2 -37z m520 0 c0 -35 -4 -40 -50 -66 -66 -37 -66 -57 0
-57 l50 0 0 -35 0 -35 -140 0 -140 0 0 64 c0 73 14 122 40 136 32 17 88 12
111 -11 l20 -20 52 30 c29 17 53 31 55 31 1 0 2 -17 2 -37z m520 0 c0 -35 -4
-40 -50 -66 -66 -37 -66 -57 0 -57 l50 0 0 -35 0 -35 -140 0 -140 0 0 64 c0
73 14 122 40 136 32 17 88 12 111 -11 l20 -20 52 30 c29 17 53 31 55 31 1 0 2
-17 2 -37z m-1040 -257 c0 -30 -4 -35 -30 -41 -29 -6 -30 -9 -30 -60 0 -51 1
-54 30 -60 26 -6 30 -11 30 -41 0 -19 -4 -34 -8 -34 -4 0 -66 23 -137 50 -71
28 -131 50 -133 50 -2 0 -2 16 0 36 l3 37 125 48 c69 26 131 48 138 48 7 1 12
-12 12 -33z m520 0 c0 -30 -4 -35 -30 -41 -29 -6 -30 -9 -30 -60 0 -51 1 -54
30 -60 26 -6 30 -11 30 -41 0 -19 -4 -34 -8 -34 -4 0 -66 23 -137 50 -71 28
-131 50 -133 50 -2 0 -2 16 0 36 l3 37 125 48 c69 26 131 48 138 48 7 1 12
-12 12 -33z m520 0 c0 -30 -4 -35 -30 -41 -29 -6 -30 -9 -30 -60 0 -51 1 -54
30 -60 26 -6 30 -11 30 -41 0 -19 -4 -34 -8 -34 -4 0 -66 23 -137 50 -71 28
-131 50 -133 50 -2 0 -2 16 0 36 l3 37 125 48 c69 26 131 48 138 48 7 1 12
-12 12 -33z m-1040 -301 l0 -35 -55 0 -55 0 0 -55 0 -55 55 0 c54 0 55 0 55
-30 l0 -30 -140 0 -140 0 0 30 c0 29 1 30 50 30 l50 0 0 55 0 55 -50 0 -50 0
0 35 0 35 140 0 140 0 0 -35z m520 0 l0 -35 -55 0 -55 0 0 -55 0 -55 55 0 c54
0 55 0 55 -30 l0 -30 -140 0 -140 0 0 30 c0 29 1 30 50 30 l50 0 0 55 0 55
-50 0 -50 0 0 35 0 35 140 0 140 0 0 -35z m520 0 l0 -35 -55 0 -55 0 0 -55 0
-55 55 0 c54 0 55 0 55 -30 l0 -30 -140 0 -140 0 0 30 c0 29 1 30 50 30 l50 0
0 55 0 55 -50 0 -50 0 0 35 0 35 140 0 140 0 0 -35z m3605 -345 c-93 -93 -173
-170 -177 -170 -5 0 -8 46 -8 102 l0 102 67 68 67 68 111 0 110 0 -170 -170z
m215 -225 l-395 -395 -3 107 -3 107 288 288 288 288 110 0 110 0 -395 -395z
m220 -220 l-615 -615 -3 107 -3 107 508 508 508 508 110 0 110 0 -615 -615z
m-5099 304 c15 -15 19 -30 17 -62 -3 -41 -4 -42 -43 -45 -32 -3 -38 -1 -27 9
6 7 12 21 12 31 0 16 -11 18 -110 18 l-110 0 0 35 0 35 120 0 c108 0 122 -2
141 -21z m520 0 c15 -15 19 -30 17 -62 -3 -41 -4 -42 -43 -45 -32 -3 -38 -1
-27 9 6 7 12 21 12 31 0 16 -11 18 -110 18 l-110 0 0 35 0 35 120 0 c108 0
122 -2 141 -21z m520 0 c15 -15 19 -30 17 -62 -3 -41 -4 -42 -43 -45 -32 -3
-38 -1 -27 9 6 7 12 21 12 31 0 16 -11 18 -110 18 l-110 0 0 35 0 35 120 0
c108 0 122 -2 141 -21z m520 0 c15 -15 19 -30 17 -62 -3 -41 -4 -42 -43 -45
-32 -3 -38 -1 -27 9 6 7 12 21 12 31 0 16 -11 18 -110 18 l-110 0 0 35 0 35
120 0 c108 0 122 -2 141 -21z m520 0 c15 -15 19 -30 17 -62 -3 -41 -4 -42 -43
-45 -32 -3 -38 -1 -27 9 6 7 12 21 12 31 0 16 -11 18 -110 18 l-110 0 0 35 0
35 120 0 c108 0 122 -2 141 -21z m530 0 c15 -15 19 -30 17 -62 -3 -41 -4 -42
-43 -45 -32 -3 -38 -1 -27 9 6 7 12 21 12 31 0 16 -11 18 -110 18 l-110 0 0
35 0 35 120 0 c108 0 122 -2 141 -21z"/>
<path d="M5930 4794 c0 -6 -11 -16 -24 -22 -16 -7 -26 -22 -29 -44 -4 -18 -12
-63 -18 -100 l-12 -68 28 -21 c15 -13 34 -37 41 -55 8 -18 30 -49 49 -68 19
-20 35 -43 35 -52 0 -18 26 -101 47 -151 7 -17 13 -42 13 -55 0 -13 4 -28 9
-34 5 -5 21 -49 35 -99 28 -93 62 -167 103 -221 13 -17 23 -36 23 -42 0 -17
25 -15 40 3 8 10 21 13 33 9 16 -5 19 -3 14 12 -3 11 -19 69 -36 129 -18 61
-34 118 -37 128 -3 9 -14 17 -25 17 -17 0 -21 6 -18 26 0 3 -7 17 -16 31 -12
17 -13 23 -4 17 12 -6 12 -5 0 9 -7 9 -10 17 -7 17 4 0 1 10 -6 23 -7 12 -12
25 -13 29 0 4 -7 13 -16 20 -9 7 -55 132 -104 278 -84 254 -104 308 -105 284z"/>
<path d="M926 5379 c-29 -23 -33 -54 -10 -87 12 -18 25 -22 64 -22 53 0 80 22
80 66 0 29 -45 64 -80 64 -15 0 -39 -9 -54 -21z"/>
<path d="M1446 5379 c-29 -23 -33 -54 -10 -87 12 -18 25 -22 64 -22 53 0 80
22 80 66 0 29 -45 64 -80 64 -15 0 -39 -9 -54 -21z"/>
<path d="M1966 5379 c-29 -23 -33 -54 -10 -87 12 -18 25 -22 64 -22 53 0 80
22 80 66 0 29 -45 64 -80 64 -15 0 -39 -9 -54 -21z"/>
<path d="M7610 1785 l-1785 -1785 110 0 110 0 1678 1678 1678 1678 -3 107 -3
107 -1785 -1785z"/>
<path d="M7830 1565 l-1565 -1565 110 0 110 0 1458 1458 1458 1458 -3 107 -3
107 -1565 -1565z"/>
<path d="M8050 1338 l-1345 -1338 110 0 110 0 1238 1238 1238 1238 -3 100 -3
101 -1345 -1339z"/>
<path d="M8275 1120 l-1120 -1120 110 2 110 3 1013 1016 1013 1017 -3 101 -3
101 -1120 -1120z"/>
<path d="M8497 902 l-898 -897 108 -3 107 -3 793 794 794 793 -3 107 -3 107
-898 -898z"/>
<path d="M8715 680 l-680 -680 110 0 110 0 573 573 573 573 -3 107 -3 107
-680 -680z"/>
<path d="M8935 460 l-460 -460 110 0 110 0 353 353 353 353 -3 107 -3 107
-460 -460z"/>
<path d="M9155 240 l-240 -240 110 0 110 0 133 133 133 133 -3 107 -3 107
-240 -240z"/>
</g>
</svg>
