<?xml version="1.0" standalone="no"?>
<!DOCTYPE svg PUBLIC "-//W3C//DTD SVG 20010904//EN"
 "http://www.w3.org/TR/2001/REC-SVG-20010904/DTD/svg10.dtd">
<svg version="1.0" xmlns="http://www.w3.org/2000/svg"
 width="500.000000pt" height="500.000000pt" viewBox="0 0 500.000000 500.000000"
 preserveAspectRatio="xMidYMid meet">

<g transform="translate(0.000000,500.000000) scale(0.100000,-0.100000)"
fill="#000000" stroke="none">
<path d="M0 2500 l0 -2500 2500 0 2500 0 0 2500 0 2500 -2500 0 -2500 0 0
-2500z m1878 387 l283 -283 -26 -24 -25 -24 25 -26 25 -26 -25 -24 -25 -24 27
-28 27 -29 -284 -284 -285 -285 -282 282 -283 282 25 26 25 26 -25 24 c-31 29
-31 37 -3 67 l21 23 -23 25 -24 26 279 279 c154 154 282 280 285 280 3 0 132
-127 288 -283z m552 -9 c0 -143 -9 -167 -63 -185 -31 -11 -44 -10 -72 1 -33
14 -34 16 -24 45 10 27 13 29 34 19 46 -21 55 1 55 128 l0 114 35 0 35 0 0
-122z m117 -135 c13 -19 12 -24 -6 -42 -25 -25 -59 -17 -67 15 -13 51 44 72
73 27z m-179 -205 l3 -58 44 0 44 0 3 58 c3 56 3 57 36 60 l32 3 0 -155 0
-156 -35 0 -35 0 0 60 0 60 -45 0 -45 0 0 -60 0 -60 -40 0 -40 0 0 148 c0 82
3 152 7 156 4 4 21 6 38 4 29 -3 30 -5 33 -60z m417 -60 c27 -68 55 -138 62
-155 l13 -33 -38 0 c-33 0 -39 4 -49 30 -11 29 -14 30 -70 30 -56 0 -59 -1
-70 -30 -10 -26 -16 -30 -48 -30 -26 0 -36 4 -32 13 118 300 117 297 151 297
32 0 33 -1 81 -122z m269 93 c37 -35 36 -93 -2 -130 l-28 -28 29 -34 c16 -19
37 -46 48 -61 l20 -28 -43 0 c-41 0 -45 3 -88 61 l-45 60 -3 -61 -3 -60 -34 0
-35 0 0 156 0 156 79 -3 c67 -4 83 -8 105 -28z m272 -4 c35 -41 32 -91 -6
-127 l-29 -27 36 -44 c20 -24 43 -52 51 -61 14 -17 12 -18 -30 -18 -45 0 -47
2 -92 62 l-46 62 0 -62 0 -62 -35 0 -35 0 0 156 0 156 81 -4 c74 -3 83 -6 105
-31z m154 -122 l0 -155 -35 0 -35 0 0 155 0 155 35 0 35 0 0 -155z m223 144
c12 -7 23 -13 25 -14 1 -1 -3 -14 -9 -29 -9 -19 -17 -25 -28 -20 -35 15 -68
15 -80 1 -15 -19 -6 -28 64 -65 77 -42 87 -108 23 -155 -34 -26 -110 -27 -156
-3 -37 19 -38 23 -13 55 17 23 19 23 44 7 34 -23 81 -18 85 9 2 16 -8 27 -40
44 -67 37 -78 50 -78 93 0 55 37 88 97 88 24 0 54 -5 66 -11z m-1332 -494 c15
-55 29 -93 32 -85 4 8 17 53 29 100 21 77 26 85 50 88 24 3 27 -1 47 -80 38
-144 35 -141 55 -63 38 155 33 145 71 145 21 0 35 -5 35 -13 0 -6 -18 -75 -40
-152 -22 -77 -40 -141 -40 -142 0 -2 -18 -3 -39 -3 -39 0 -40 1 -55 53 -8 28
-18 65 -22 80 -9 38 -15 28 -39 -56 l-21 -72 -40 -3 -40 -3 -42 149 c-23 81
-42 152 -42 156 0 4 17 6 38 4 l37 -3 26 -100z m519 75 c0 -29 -1 -30 -50 -30
-49 0 -50 -1 -50 -29 0 -28 2 -30 48 -33 45 -3 47 -4 47 -33 0 -29 -2 -30 -47
-33 -46 -3 -48 -5 -48 -33 0 -28 1 -29 50 -29 49 0 50 -1 50 -30 l0 -30 -90 0
-90 0 0 148 c0 82 3 152 7 155 3 4 44 7 90 7 l83 0 0 -30z m189 15 c42 -21 55
-72 28 -109 -12 -16 -10 -22 15 -46 34 -35 36 -70 4 -107 -23 -26 -31 -28
-110 -32 l-86 -3 0 156 0 156 60 0 c34 0 74 -7 89 -15z m374 -10 c15 -10 37
-31 49 -48 30 -42 31 -125 2 -164 -40 -53 -70 -67 -150 -71 l-74 -4 0 157 0
158 73 -5 c46 -3 83 -11 100 -23z m277 -5 c0 -29 -1 -30 -50 -30 -49 0 -50 -1
-50 -29 0 -28 2 -30 48 -33 45 -3 47 -4 50 -35 l3 -33 -50 0 c-50 0 -51 -1
-51 -30 0 -29 1 -30 50 -30 49 0 50 -1 50 -30 l0 -30 -85 0 -85 0 0 155 0 155
85 0 85 0 0 -30z m116 -42 c56 -150 45 -147 90 -30 l39 102 38 0 c33 0 38 -3
33 -17 -4 -10 -33 -80 -64 -156 -56 -135 -58 -137 -86 -135 -28 3 -33 12 -93
153 -34 83 -63 151 -63 153 0 1 18 2 39 2 l39 0 28 -72z"/>
<path d="M1320 2885 c-273 -273 -274 -274 -255 -295 l19 -21 253 253 253 253
255 -255 255 -255 22 23 23 22 -275 275 -275 275 -275 -275z"/>
<path d="M1340 2805 l-244 -244 24 -26 24 -26 228 228 228 228 225 -225 c223
-223 224 -224 245 -205 l21 19 -248 248 c-136 136 -250 248 -253 248 -3 0
-115 -110 -250 -245z"/>
<path d="M1375 2720 l-220 -220 220 -220 220 -220 222 222 223 223 -217 217
c-120 120 -220 218 -223 218 -3 0 -104 -99 -225 -220z m185 -83 c0 -70 -10
-87 -52 -87 -21 0 -28 5 -28 19 0 14 5 18 20 14 18 -5 20 0 20 56 0 54 2 61
20 61 18 0 20 -7 20 -63z m52 36 c2 -20 9 -29 26 -31 19 -3 22 1 22 27 0 24 4
31 20 31 18 0 20 -7 20 -75 0 -68 -2 -75 -20 -75 -16 0 -20 7 -20 30 0 25 -4
30 -25 30 -21 0 -25 -5 -25 -30 0 -20 -5 -30 -15 -30 -12 0 -15 15 -15 75 0
58 3 75 14 75 9 0 16 -12 18 -27z m-139 -220 l14 -48 13 48 c16 61 40 60 55
-3 12 -49 19 -45 30 13 5 27 12 37 26 37 23 0 23 2 -1 -81 -16 -54 -25 -69
-40 -69 -14 0 -22 11 -31 43 l-12 42 -11 -40 c-8 -29 -18 -41 -34 -43 -12 -2
-22 0 -22 5 0 4 -9 38 -19 76 -19 65 -19 67 -1 67 14 0 23 -13 33 -47z m258
36 c28 -15 41 -53 28 -86 -14 -37 -38 -52 -81 -53 l-38 0 0 75 0 75 36 0 c19
0 44 -5 55 -11z"/>
<path d="M1680 2425 c0 -48 9 -55 34 -29 19 18 20 28 6 55 -20 36 -40 23 -40
-26z"/>
<path d="M1062 2527 l-22 -23 25 -24 25 -24 22 22 22 22 -25 25 -25 26 -22
-24z"/>
<path d="M2076 2522 c-15 -18 -15 -20 4 -37 19 -17 21 -17 40 0 19 17 19 19 4
37 -10 10 -20 18 -24 18 -4 0 -14 -8 -24 -18z"/>
<path d="M1122 2468 l-21 -24 244 -244 245 -245 250 250 c250 250 250 250 230
270 -20 20 -20 20 -248 -208 l-227 -227 -225 225 -226 226 -22 -23z"/>
<path d="M1843 2188 l-253 -253 -250 250 -250 250 -22 -23 -23 -22 270 -270
c148 -149 274 -270 280 -270 6 0 133 123 283 273 l273 273 -24 22 c-13 12 -25
22 -28 22 -2 0 -118 -114 -256 -252z"/>
<path d="M2692 2474 c-5 -16 -13 -37 -17 -46 -6 -15 -2 -18 24 -18 35 0 38 11
17 60 l-13 32 -11 -28z"/>
<path d="M2940 2500 c0 -43 13 -50 51 -30 37 20 17 70 -28 70 -20 0 -23 -5
-23 -40z"/>
<path d="M3210 2500 c0 -33 3 -40 19 -40 18 0 51 24 51 36 0 20 -25 44 -45 44
-22 0 -25 -4 -25 -40z"/>
<path d="M3000 2110 c0 -27 3 -31 23 -28 16 2 22 10 22 28 0 18 -6 26 -22 28
-20 3 -23 -1 -23 -28z"/>
<path d="M3000 1980 c0 -43 13 -50 51 -30 38 21 13 70 -35 70 -12 0 -16 -10
-16 -40z"/>
<path d="M3355 2132 c-3 -3 -5 -46 -5 -95 l0 -89 28 6 c64 15 93 97 52 148
-18 24 -63 42 -75 30z"/>
</g>
</svg>
