<?xml version="1.0" standalone="no"?>
<!DOCTYPE svg PUBLIC "-//W3C//DTD SVG 20010904//EN"
 "http://www.w3.org/TR/2001/REC-SVG-20010904/DTD/svg10.dtd">
<svg version="1.0" xmlns="http://www.w3.org/2000/svg"
 width="500.000000pt" height="500.000000pt" viewBox="0 0 500.000000 500.000000"
 preserveAspectRatio="xMidYMid meet">

<g transform="translate(0.000000,500.000000) scale(0.100000,-0.100000)"
fill="#000000" stroke="none">
<path d="M2010 4062 c0 -571 -1 -583 -61 -655 -51 -62 -100 -82 -199 -82 -62
1 -94 6 -120 19 -73 38 -112 94 -125 179 l-7 47 -89 0 -89 0 0 -40 c0 -53 35
-156 67 -198 93 -123 260 -181 445 -154 155 22 261 96 322 222 l31 65 3 558 3
557 -91 0 -90 0 0 -518z"/>
<path d="M2507 4574 c-4 -4 -7 -317 -7 -696 l0 -688 95 0 95 0 0 320 0 320
350 0 350 0 0 -320 0 -320 90 0 90 0 0 695 0 695 -90 0 -90 0 0 -300 0 -300
-350 0 -350 0 -2 298 -3 297 -85 3 c-47 1 -89 0 -93 -4z"/>
<path d="M1060 1873 c0 -10 74 -322 164 -693 l163 -675 84 -3 85 -3 56 193
c142 489 247 856 254 883 l7 30 9 -40 c9 -34 240 -858 284 -1012 l15 -53 85 0
c46 0 84 2 84 5 0 2 74 311 165 686 91 374 165 685 165 690 0 5 -40 9 -90 9
-85 0 -90 -1 -95 -22 -63 -268 -217 -965 -226 -1028 l-12 -85 -28 110 c-21 83
-244 902 -275 1008 -5 15 -16 17 -82 15 l-77 -3 -117 -410 c-64 -225 -134
-476 -155 -557 -21 -81 -39 -145 -41 -143 -2 1 -9 43 -17 91 -13 86 -221 1000
-231 1016 -3 4 -43 8 -90 8 -73 0 -84 -2 -84 -17z"/>
<path d="M2890 1195 l0 -697 258 4 c256 4 257 4 342 34 197 70 319 204 376
414 26 93 26 387 1 480 -46 172 -150 312 -284 383 -119 62 -159 69 -440 74
l-253 5 0 -697z m463 535 c248 -36 369 -235 354 -580 -9 -194 -39 -281 -129
-377 -89 -93 -182 -123 -383 -123 l-125 0 0 545 0 545 108 0 c59 0 138 -5 175
-10z"/>
</g>
</svg>
